<svg width="105" height="100" viewBox="0 0 105 100" fill="none" xmlns="http://www.w3.org/2000/svg">
<g clip-path="url(#clip0_399_465)">
<path fill-rule="evenodd" clip-rule="evenodd" d="M47.5886 32.293C46.534 32.485 44.7069 32.9618 43.5284 33.3528C42.3501 33.7438 40.7968 34.3584 40.0764 34.7187C39.356 35.0792 37.8236 35.9999 36.6711 36.7654C35.5185 37.5306 33.704 39.0262 32.6389 40.0888C31.5738 41.1518 30.119 42.8495 29.4062 43.8619C28.6932 44.8744 27.7229 46.4719 27.2498 47.4121C26.777 48.3522 26.0873 49.9676 25.7172 51.0016C25.3473 52.0359 24.8609 53.8536 24.6364 55.0411C24.4119 56.2292 24.2285 58.5931 24.2285 60.2977C24.2285 62.0012 24.4066 64.3385 24.6246 65.4914C24.8425 66.644 25.297 68.4027 25.6349 69.3991C25.9728 70.3958 26.6335 71.9802 27.1031 72.9203C27.5728 73.8604 28.4768 75.4196 29.1123 76.385C29.7478 77.3506 31.1191 79.0128 32.1595 80.0789C33.2003 81.145 34.7353 82.523 35.5709 83.1407C36.4062 83.7584 37.9567 84.7333 39.016 85.3068C40.0754 85.8806 41.9001 86.7008 43.0707 87.1297C44.2414 87.5586 46.2133 88.0872 47.4526 88.3042C48.6921 88.5211 50.9983 88.6986 52.5776 88.6986C54.4427 88.6986 56.3743 88.5093 58.0893 88.1585C59.5415 87.8613 61.6321 87.2688 62.7349 86.842C63.838 86.415 65.7911 85.4451 67.0754 84.6867C68.7781 83.6814 70.1968 82.524 72.3123 80.415C74.1572 78.5758 75.6671 76.7852 76.4582 75.4985C77.1426 74.3853 78.0919 72.5479 78.5676 71.4156C79.0433 70.283 79.6914 68.3535 80.0078 67.1281C80.3622 65.7543 80.6402 63.6803 80.7324 61.7206C80.823 59.792 80.7578 57.6714 80.566 56.3297C80.3921 55.1132 79.8389 52.8753 79.3364 51.3566C78.834 49.838 78 47.8262 77.4829 46.8861C76.9658 45.946 75.972 44.3952 75.2742 43.4399C74.5763 42.4845 73.0903 40.8275 71.972 39.7577C70.8535 38.688 69.2313 37.3429 68.3668 36.7688C67.5024 36.1947 66.0289 35.3353 65.0925 34.8588C64.156 34.3826 62.3289 33.6497 61.0323 33.2305C59.7356 32.8111 57.7527 32.3393 56.6258 32.1823C55.4986 32.0253 53.4358 31.9075 52.0417 31.9204C50.6473 31.9335 48.6434 32.1011 47.5886 32.293ZM58.8057 34.8854C60.1744 35.2391 61.8024 35.7487 62.4235 36.0178L63.5527 36.5069L61.1137 37.1977C59.7723 37.5777 57.464 38.0771 55.9845 38.3072C54.5048 38.5376 52.9724 38.8955 52.5792 39.1027C52.1858 39.3099 51.4109 39.9494 50.8569 40.524C49.9639 41.45 49.8851 41.634 50.1598 42.1497C50.3932 42.5876 50.6424 42.7014 51.167 42.6107C51.5505 42.5442 52.0702 42.4014 52.3225 42.2931C52.6772 42.1408 52.7809 42.2234 52.7809 42.6586C52.7809 42.9681 52.958 43.2892 53.1743 43.3726C53.3907 43.4559 53.858 43.4512 54.2127 43.3618C54.6905 43.2413 54.9307 42.9271 55.1392 42.15C55.3045 41.5339 55.5785 41.1007 55.8035 41.1007C56.0139 41.1007 56.1862 41.2109 56.1862 41.3453C56.1862 41.4799 56.4513 41.628 56.7756 41.674C57.0999 41.7203 57.365 41.9323 57.365 42.1447C57.365 42.3575 57.0776 42.6754 56.7261 42.8513C56.3748 43.027 55.929 43.4743 55.7354 43.8451C55.4247 44.4407 55.2202 44.5194 53.9832 44.5194C52.8359 44.5194 52.5145 44.416 52.2046 43.9474C51.9563 43.5721 51.675 43.4336 51.3868 43.5445C51.0934 43.6576 50.9473 44.0145 50.9473 44.6169C50.9473 45.3567 50.8171 45.5718 50.2269 45.8082C49.8306 45.9668 49.035 46.3875 48.4587 46.7428C47.8825 47.0983 47.0869 47.3944 46.6906 47.4008C46.2482 47.4076 45.9702 47.5562 45.9702 47.7857C45.9702 47.9911 46.3239 48.2373 46.7561 48.3325C47.3654 48.4668 47.5419 48.6488 47.5419 49.1422C47.5419 49.7394 47.4516 49.7788 46.0876 49.7788C44.633 49.7788 44.633 49.7788 44.7124 51.1594C44.7915 52.54 44.7915 52.54 46.2731 52.6181C47.7549 52.6962 47.7549 52.6962 48.3658 51.4681C48.7018 50.7928 49.0958 50.2122 49.2417 50.178C49.3874 50.1441 49.9545 49.9713 50.5017 49.7943C51.3423 49.5224 51.5953 49.5371 52.1286 49.8879C52.4904 50.1257 52.881 50.7534 53.0426 51.3558C53.1979 51.9349 53.4313 52.4085 53.5615 52.4085C53.6914 52.4085 53.8706 52.2902 53.9597 52.1456C54.0487 52.0009 54.3544 51.8826 54.6392 51.8826C55.0913 51.8826 55.1185 51.8076 54.8537 51.2909C54.6868 50.9656 54.2481 50.3739 53.8787 49.976C53.2068 49.2529 53.2068 49.2529 53.8282 49.2529C54.17 49.2529 54.7227 49.51 55.0562 49.8246C55.4452 50.1914 55.6623 50.6984 55.6623 51.2388C55.6623 51.7022 55.8376 52.2273 56.0518 52.4056C56.2661 52.5842 56.6208 52.6612 56.8401 52.5768C57.0593 52.4924 57.3734 52.1264 57.5379 51.7635C57.7026 51.4006 58.0552 51.0342 58.3216 50.9496C58.5878 50.8646 58.8057 50.5588 58.8057 50.2698C58.8057 49.9808 58.9278 49.5153 59.0768 49.2355C59.261 48.89 59.6183 48.7303 60.1901 48.7377C60.6532 48.7437 61.5627 49.0099 62.211 49.3294C63.1465 49.7904 63.4076 50.067 63.476 50.669C63.5624 51.4276 63.5624 51.4276 61.2104 51.243C59.5617 51.1137 58.8036 51.1473 58.675 51.3561C58.5744 51.5197 58.5679 52.0603 58.6606 52.5571C58.811 53.3621 58.921 53.4607 59.6688 53.4641C60.1306 53.4659 60.7735 53.539 61.0978 53.6261C61.4959 53.7334 61.6871 53.9842 61.6871 54.3995C61.6871 54.8989 61.5074 55.0482 60.7313 55.1944C60.2058 55.2933 58.7518 55.3015 57.5002 55.2123C56.2486 55.1232 54.8314 55.1634 54.3505 55.3017C53.7533 55.4737 53.3671 55.4621 53.1306 55.2652C52.9404 55.1066 52.6578 54.5041 52.503 53.9264C52.2211 52.8761 52.2211 52.8761 50.2091 53.0646C49.1024 53.1685 47.9021 53.4041 47.5419 53.5882C47.1817 53.7723 46.5151 54.0034 46.0606 54.1015C45.5084 54.2209 45 54.6199 44.5274 55.3041C44.1387 55.8674 43.5438 56.5101 43.2056 56.7326C42.8675 56.955 42.4677 57.582 42.3174 58.1258C42.167 58.6694 42.0515 60.061 42.0609 61.2181C42.0701 62.3752 42.1578 63.5157 42.2558 63.7523C42.3538 63.9893 43.0734 64.7585 43.8547 65.4616C45.2205 66.691 45.3319 66.7386 46.7362 66.6926C47.5396 66.6666 48.7443 66.6074 49.4136 66.5611C50.3188 66.4991 50.7689 66.6035 51.1717 66.9695C51.4696 67.2401 51.8486 67.891 52.0142 68.4159C52.1795 68.9408 52.5596 69.8751 52.8584 70.4923C53.3795 71.5673 53.3844 71.6696 52.9787 72.9435C52.6195 74.0706 52.6057 74.4395 52.8873 75.3715C53.0701 75.9758 53.6807 77.0916 54.2444 77.8508C55.052 78.9382 55.424 79.2311 55.9981 79.2314C56.3989 79.2316 57.1264 79.0641 57.6144 78.8595C58.1024 78.6547 58.6441 78.211 58.8183 77.8734C58.9925 77.5357 60.079 76.2808 61.2329 75.0851C63.3306 72.9106 63.3306 72.9106 63.1907 71.3598C63.0506 69.8088 63.0506 69.8088 64.7918 68.1432C66.1893 66.8065 66.6223 66.1946 66.984 65.0454C67.2318 64.2578 67.3717 63.5498 67.2944 63.4725C67.2174 63.395 66.7983 63.5367 66.3635 63.7873C65.9284 64.0379 65.1202 64.3156 64.5675 64.4045C63.5624 64.5657 63.5624 64.5657 63.6926 63.5493C63.7945 62.7538 63.6156 62.0859 62.8701 60.4775C62.3459 59.347 61.9556 58.1637 62.0025 57.8478C62.0672 57.4131 62.2894 57.6893 62.9162 58.9828C63.3717 59.9229 63.9821 61.2541 64.2728 61.9412C64.5633 62.6284 64.9626 63.1904 65.1598 63.1904C65.357 63.1904 66.3155 62.7078 67.2897 62.118C68.2639 61.5281 69.3963 60.9283 69.806 60.7847C70.2159 60.6414 70.6185 60.3482 70.7008 60.1333C70.7849 59.9132 70.5703 59.4617 70.2096 59.0996C69.7727 58.6609 69.2761 58.4569 68.6461 58.4569C67.8267 58.4569 67.6601 58.3338 67.1674 57.3642L66.6123 56.2718L67.6148 57.1013C68.4048 57.7553 68.8624 57.9309 69.7748 57.9309C70.7142 57.9309 71.1474 58.1076 72.0729 58.8692C72.7002 59.3852 73.3533 60.0657 73.5241 60.3813C73.6949 60.6969 73.9241 61.6028 74.033 62.3941C74.1551 63.28 74.4074 63.9624 74.689 64.1691C74.9407 64.354 75.2867 64.5052 75.4578 64.5052C75.6288 64.5052 75.9222 64.1205 76.1095 63.6506C76.2971 63.1806 76.8639 62.3226 77.3697 61.744C77.8753 61.1655 78.3976 60.6482 78.5307 60.5946C78.6742 60.5367 78.7015 61.1789 78.5978 62.1724C78.5016 63.0939 78.3041 64.4986 78.1587 65.2941C78.0133 66.0896 77.6495 67.5097 77.3504 68.4498C77.0509 69.3899 76.3584 71.0595 75.8109 72.1603C75.2637 73.2609 74.0841 75.1359 73.1901 76.3271C72.2961 77.5184 70.7115 79.2211 69.6692 80.1113C68.6267 81.0014 66.9641 82.2116 65.9747 82.8004C64.9853 83.3892 63.2916 84.2352 62.211 84.6804C61.1305 85.1256 59.3034 85.7089 58.1508 85.9766C56.6211 86.3319 55.0654 86.4599 52.388 86.4505C49.5228 86.4405 48.218 86.3119 46.4224 85.8622C45.1582 85.5459 43.2921 84.9315 42.2752 84.4971C41.2586 84.0627 39.4637 83.0637 38.2868 82.2768C37.1101 81.49 35.8588 80.6128 35.5064 80.3277C34.8744 79.816 34.8715 79.7954 35.3013 78.7972C35.541 78.2408 35.9059 77.1071 36.1123 76.2785C36.4877 74.7714 36.4877 74.7714 35.5958 74.2181C35.1051 73.9136 34.0264 73.4013 33.1989 73.0797C31.6946 72.4948 31.6938 72.4938 30.8301 70.3997C30.0831 68.5881 29.8067 68.2037 28.7856 67.5552C28.136 67.1426 27.4473 66.6471 27.2548 66.4538C27.0623 66.2606 26.7579 65.064 26.5785 63.7944C26.3762 62.3641 26.3147 60.4357 26.4166 58.7225C26.5614 56.2834 26.6502 55.901 27.172 55.4695C27.4971 55.2005 28.4414 54.6367 29.2702 54.2165C30.5035 53.5916 30.7772 53.3329 30.7772 52.7917C30.7772 52.428 30.4081 51.3963 29.9568 50.4991C29.2522 49.0977 29.1765 48.7619 29.4188 48.1174C29.5738 47.7045 30.1493 46.6681 30.6976 45.814C31.2456 44.9598 31.753 44.2603 31.825 44.2596C31.8971 44.2588 31.956 44.9128 31.956 45.7133C31.956 46.6815 32.0796 47.2451 32.3251 47.3973C32.5281 47.5233 32.8492 47.5667 33.0386 47.4938C33.228 47.4207 33.7446 46.7715 34.1862 46.0507C34.6279 45.3298 35.4685 44.1318 36.0542 43.3878C37.0567 42.1148 37.1125 41.953 37.0032 40.6308C36.888 39.2368 36.895 39.221 37.9578 38.4889C38.5469 38.0834 39.8556 37.3342 40.8664 36.824C41.8773 36.3139 43.7044 35.5841 44.9266 35.202C46.1489 34.8199 47.9152 34.4 48.8517 34.2687C49.7881 34.1378 51.851 34.0781 53.4358 34.1362C55.3349 34.2059 57.1657 34.4612 58.8057 34.8854ZM46.4596 38.997C46.1693 39.1697 45.9689 39.8219 45.8348 41.0308C45.6604 42.6041 45.6087 42.7264 45.3892 42.0869C45.2525 41.689 45.0395 41.3637 44.9162 41.3637C44.7925 41.3637 44.6393 41.4523 44.5759 41.5609C44.5122 41.6695 44.3744 42.1589 44.2697 42.6491C44.0839 43.5167 44.0984 43.5361 44.8192 43.3978C45.3185 43.3021 45.7659 43.4188 46.1932 43.756C46.5415 44.0313 47.0306 44.2564 47.28 44.2564C47.5294 44.2564 48.0438 44.011 48.4234 43.7113C48.8527 43.3723 49.1136 42.9079 49.1136 42.4829C49.1136 42.1071 48.9423 41.6096 48.733 41.3774C48.524 41.1454 48.1997 40.4867 48.0126 39.9139C47.8259 39.3412 47.4961 38.8434 47.28 38.8079C47.0639 38.7721 46.6948 38.8573 46.4596 38.997ZM67.6577 49.6676C67.7002 50.2351 67.9063 51.0721 68.1161 51.5278C68.3262 51.9836 68.4978 52.5482 68.4978 52.7827C68.4978 53.017 68.2107 53.34 67.8597 53.5006C67.5087 53.6611 67.0597 53.7302 66.8622 53.6542C66.6597 53.5761 66.3637 52.7572 66.1838 51.7774C65.8815 50.1296 65.8951 49.9976 66.4478 49.2471C66.7687 48.8116 67.1548 48.496 67.3059 48.5457C67.4573 48.5954 67.6156 49.1003 67.6577 49.6676ZM65.3544 72.2939C65.3544 72.528 65.0008 73.1239 64.5686 73.618C64.0305 74.2331 63.7827 74.7937 63.7827 75.3954C63.7827 75.879 63.9543 76.4176 64.1641 76.5925C64.374 76.7671 64.6537 76.8431 64.7857 76.761C64.918 76.6792 65.3356 75.9768 65.7141 75.2003C66.0926 74.4237 66.4022 73.3563 66.4022 72.8283C66.4022 72.0438 66.3066 71.8684 65.8783 71.8684C65.5703 71.8684 65.3544 72.0438 65.3544 72.2939Z" fill="#C28C59"/>
<circle cx="10" cy="90" r="10" fill="#C28C59"/>
<circle cx="95" cy="90" r="10" fill="#C28C59"/>
<circle cx="52.5" cy="10" r="10" fill="#C28C59"/>
</g>
<defs>
<clipPath id="clip0_399_465">
<rect width="105" height="100" fill="white"/>
</clipPath>
</defs>
</svg>
