<svg width="64" height="60" viewBox="0 0 64 60" fill="none" xmlns="http://www.w3.org/2000/svg">
<g clip-path="url(#clip0_399_470)">
<path fill-rule="evenodd" clip-rule="evenodd" d="M29.0374 18.1016C28.4013 18.2174 27.2992 18.5049 26.5884 18.7408C25.8777 18.9767 24.9408 19.3473 24.5063 19.5646C24.0718 19.7821 23.1475 20.3374 22.4523 20.7992C21.7571 21.2607 20.6626 22.1628 20.0202 22.8038C19.3777 23.4449 18.5002 24.4689 18.0703 25.0796C17.6402 25.6903 17.055 26.6539 16.7696 27.2209C16.4844 27.788 16.0684 28.7624 15.8452 29.3861C15.6221 30.0099 15.3287 31.1063 15.1933 31.8226C15.0579 32.5392 14.9473 33.965 14.9473 34.9932C14.9473 36.0207 15.0547 37.4305 15.1862 38.1259C15.3176 38.8211 15.5917 39.8819 15.7956 40.4829C15.9994 41.0841 16.3979 42.0397 16.6812 42.6068C16.9644 43.1738 17.5097 44.1143 17.893 44.6966C18.2763 45.279 19.1035 46.2816 19.731 46.9247C20.3588 47.5677 21.2846 48.3988 21.7887 48.7714C22.2925 49.144 23.2277 49.732 23.8667 50.078C24.5056 50.4241 25.6063 50.9188 26.3124 51.1775C27.0185 51.4362 28.2079 51.755 28.9554 51.8859C29.703 52.0167 31.0941 52.1238 32.0466 52.1238C33.1716 52.1238 34.3367 52.0096 35.3711 51.798C36.2471 51.6188 37.5081 51.2614 38.1732 51.004C38.8386 50.7464 40.0166 50.1614 40.7913 49.7039C41.8183 49.0976 42.674 48.3995 43.95 47.1274C45.0628 46.018 45.9735 44.938 46.4507 44.1619C46.8636 43.4904 47.4361 42.3822 47.7231 41.6992C48.01 41.016 48.4009 39.8522 48.5918 39.1131C48.8055 38.2845 48.9732 37.0335 49.0288 35.8514C49.0834 34.6881 49.0441 33.4091 48.9285 32.5998C48.8235 31.866 48.4898 30.5162 48.1868 29.6002C47.8838 28.6842 47.3807 27.4708 47.0688 26.9037C46.7569 26.3366 46.1575 25.4013 45.7365 24.825C45.3156 24.2488 44.4193 23.2493 43.7448 22.6041C43.0701 21.9588 42.0916 21.1475 41.5702 20.8012C41.0488 20.455 40.1601 19.9366 39.5952 19.6492C39.0304 19.3619 37.9283 18.9199 37.1462 18.667C36.3641 18.414 35.1681 18.1295 34.4884 18.0348C33.8085 17.9401 32.5643 17.869 31.7234 17.8768C30.8823 17.8847 29.6736 17.9858 29.0374 18.1016ZM35.8032 19.6652C36.6288 19.8785 37.6108 20.1859 37.9854 20.3482L38.6665 20.6432L37.1954 21.0599C36.3863 21.2891 34.994 21.5903 34.1016 21.7291C33.209 21.8681 32.2847 22.084 32.0476 22.209C31.8103 22.3339 31.3429 22.7197 31.0087 23.0663C30.4701 23.6248 30.4226 23.7358 30.5883 24.0468C30.7291 24.3109 30.8793 24.3796 31.1958 24.3249C31.4271 24.2848 31.7406 24.1986 31.8928 24.1333C32.1067 24.0415 32.1693 24.0913 32.1693 24.3538C32.1693 24.5405 32.2761 24.7341 32.4066 24.7844C32.5371 24.8347 32.8189 24.8318 33.0329 24.7779C33.3211 24.7053 33.466 24.5157 33.5917 24.047C33.6914 23.6754 33.8567 23.4141 33.9924 23.4141C34.1193 23.4141 34.2232 23.4806 34.2232 23.5616C34.2232 23.6428 34.3831 23.7322 34.5787 23.7599C34.7744 23.7878 34.9342 23.9157 34.9342 24.0438C34.9342 24.1722 34.7609 24.3639 34.5489 24.47C34.337 24.576 34.0681 24.8458 33.9513 25.0694C33.7639 25.4287 33.6405 25.4761 32.8945 25.4761C32.2024 25.4761 32.0086 25.4138 31.8217 25.1312C31.6719 24.9048 31.5022 24.8212 31.3284 24.8882C31.1514 24.9564 31.0633 25.1716 31.0633 25.535C31.0633 25.9812 30.9847 26.1109 30.6288 26.2535C30.3897 26.3492 29.9099 26.603 29.5623 26.8173C29.2147 27.0317 28.7348 27.2103 28.4958 27.2141C28.2289 27.2182 28.0613 27.3079 28.0613 27.4463C28.0613 27.5702 28.2746 27.7187 28.5353 27.7761C28.9028 27.8571 29.0093 27.9669 29.0093 28.2645C29.0093 28.6247 28.9547 28.6485 28.132 28.6485C27.2547 28.6485 27.2547 28.6485 27.3025 29.4812C27.3503 30.314 27.3503 30.314 28.2439 30.3611C29.1377 30.4082 29.1377 30.4082 29.5062 29.6674C29.7089 29.2601 29.9465 28.9099 30.0345 28.8893C30.1224 28.8688 30.4644 28.7646 30.7945 28.6578C31.3015 28.4938 31.4541 28.5027 31.7758 28.7143C31.994 28.8577 32.2296 29.2363 32.3271 29.5997C32.4208 29.949 32.5616 30.2347 32.6401 30.2347C32.7185 30.2347 32.8265 30.1633 32.8802 30.076C32.934 29.9888 33.1184 29.9174 33.2901 29.9174C33.5628 29.9174 33.5792 29.8722 33.4195 29.5605C33.3189 29.3643 33.0542 29.0074 32.8314 28.7674C32.4262 28.3313 32.4262 28.3313 32.8009 28.3313C33.0071 28.3313 33.3405 28.4864 33.5416 28.6761C33.7763 28.8974 33.9072 29.2032 33.9072 29.5291C33.9072 29.8086 34.013 30.1254 34.1422 30.2329C34.2714 30.3406 34.4854 30.3871 34.6176 30.3362C34.7499 30.2853 34.9393 30.0645 35.0385 29.8456C35.1379 29.6267 35.3506 29.4057 35.5113 29.3546C35.6718 29.3034 35.8032 29.1189 35.8032 28.9446C35.8032 28.7703 35.8769 28.4896 35.9668 28.3208C36.0779 28.1124 36.2934 28.0161 36.6383 28.0205C36.9176 28.0242 37.4662 28.1847 37.8572 28.3774C38.4215 28.6555 38.579 28.8223 38.6202 29.1854C38.6724 29.643 38.6724 29.643 37.2537 29.5317C36.2592 29.4536 35.802 29.4739 35.7244 29.5999C35.6637 29.6985 35.6598 30.0246 35.7157 30.3243C35.8064 30.8098 35.8728 30.8693 36.3239 30.8713C36.6024 30.8725 36.9901 30.9165 37.1857 30.9691C37.4259 31.0338 37.5412 31.1851 37.5412 31.4355C37.5412 31.7368 37.4329 31.8269 36.9647 31.915C36.6478 31.9747 35.7707 31.9796 35.0158 31.9258C34.2609 31.8721 33.4061 31.8963 33.116 31.9798C32.7557 32.0835 32.5229 32.0765 32.3802 31.9577C32.2655 31.8621 32.095 31.4987 32.0016 31.1502C31.8316 30.5167 31.8316 30.5167 30.618 30.6304C29.9505 30.6931 29.2265 30.8352 29.0093 30.9462C28.792 31.0572 28.3899 31.1967 28.1158 31.2558C27.7827 31.3278 27.476 31.5685 27.191 31.9812C26.9565 32.3209 26.5977 32.7086 26.3937 32.8428C26.1897 32.977 25.9486 33.3551 25.8579 33.6831C25.7673 34.011 25.6976 34.8504 25.7033 35.5483C25.7088 36.2462 25.7617 36.9342 25.8208 37.0769C25.8799 37.2198 26.3139 37.6838 26.7852 38.1079C27.6091 38.8495 27.6762 38.8782 28.5232 38.8504C29.0078 38.8347 29.7345 38.799 30.1382 38.7711C30.6842 38.7337 30.9557 38.7966 31.1987 39.0174C31.3783 39.1807 31.6069 39.5732 31.7068 39.8898C31.8065 40.2064 32.0357 40.77 32.216 41.1423C32.5303 41.7907 32.5333 41.8524 32.2885 42.6207C32.0719 43.3006 32.0635 43.5231 32.2334 44.0853C32.3437 44.4498 32.712 45.1228 33.052 45.5807C33.5391 46.2366 33.7635 46.4133 34.1098 46.4134C34.3515 46.4136 34.7903 46.3126 35.0847 46.1892C35.379 46.0656 35.7058 45.798 35.8108 45.5943C35.9159 45.3907 36.5713 44.6338 37.2673 43.9125C38.5325 42.6009 38.5325 42.6009 38.4482 41.6655C38.3636 40.73 38.3636 40.73 39.4139 39.7253C40.2568 38.9191 40.518 38.55 40.7362 37.8568C40.8856 37.3818 40.97 36.9548 40.9234 36.9081C40.8769 36.8614 40.6241 36.9469 40.3619 37.098C40.0994 37.2492 39.612 37.4167 39.2786 37.4703C38.6724 37.5675 38.6724 37.5675 38.7509 36.9545C38.8124 36.4747 38.7044 36.0718 38.2548 35.1017C37.9386 34.4198 37.7032 33.706 37.7315 33.5155C37.7705 33.2533 37.9045 33.4198 38.2826 34.2001C38.5573 34.7671 38.9255 35.5701 39.1009 35.9845C39.2761 36.399 39.5169 36.738 39.6359 36.738C39.7548 36.738 40.3329 36.4469 40.9205 36.0911C41.5081 35.7353 42.1912 35.3735 42.4383 35.2869C42.6856 35.2005 42.9284 35.0236 42.978 34.894C43.0287 34.7613 42.8993 34.4889 42.6818 34.2705C42.4182 34.0059 42.1187 33.8828 41.7387 33.8828C41.2444 33.8828 41.144 33.8086 40.8468 33.2238L40.512 32.5649L41.1166 33.0652C41.5932 33.4597 41.8692 33.5656 42.4195 33.5656C42.9861 33.5656 43.2474 33.6722 43.8056 34.1316C44.184 34.4428 44.5779 34.8533 44.6809 35.0436C44.784 35.2339 44.9222 35.7804 44.9879 36.2577C45.0616 36.792 45.2137 37.2037 45.3836 37.3283C45.5354 37.4398 45.7441 37.531 45.8473 37.531C45.9505 37.531 46.1274 37.299 46.2404 37.0155C46.3535 36.7321 46.6954 36.2145 47.0005 35.8656C47.3055 35.5166 47.6205 35.2046 47.7008 35.1722C47.7874 35.1373 47.8038 35.5247 47.7412 36.1239C47.6833 36.6797 47.5641 37.5271 47.4764 38.0069C47.3887 38.4867 47.1693 39.3432 46.9888 39.9103C46.8083 40.4774 46.3905 41.4844 46.0603 42.1484C45.7302 42.8122 45.0187 43.9431 44.4795 44.6617C43.9402 45.3802 42.9845 46.4072 42.3558 46.9442C41.727 47.4811 40.7242 48.211 40.1274 48.5662C39.5306 48.9213 38.509 49.4316 37.8572 49.7001C37.2055 49.9687 36.1034 50.3205 35.4082 50.482C34.4855 50.6963 33.5472 50.7735 31.9323 50.7678C30.204 50.7618 29.4171 50.6842 28.334 50.413C27.5715 50.2221 26.4459 49.8516 25.8325 49.5896C25.2193 49.3275 24.1367 48.725 23.4268 48.2504C22.7171 47.7758 21.9623 47.2466 21.7498 47.0747C21.3685 46.766 21.3668 46.7537 21.6261 46.1516C21.7706 45.8159 21.9907 45.1321 22.1152 44.6323C22.3417 43.7233 22.3417 43.7233 21.8037 43.3896C21.5077 43.2059 20.8571 42.8969 20.358 42.7029C19.4506 42.3501 19.4501 42.3495 18.9292 41.0864C18.4786 39.9937 18.3119 39.7618 17.696 39.3707C17.3041 39.1218 16.8888 38.823 16.7726 38.7064C16.6565 38.5898 16.4729 37.8681 16.3647 37.1023C16.2427 36.2396 16.2056 35.0764 16.267 34.0431C16.3544 32.5719 16.408 32.3412 16.7227 32.081C16.9188 31.9187 17.4884 31.5786 17.9883 31.3251C18.7322 30.9483 18.8973 30.7922 18.8973 30.4658C18.8973 30.2464 18.6746 29.6241 18.4024 29.0829C17.9774 28.2377 17.9317 28.0351 18.0779 27.6463C18.1714 27.3973 18.5185 26.7722 18.8492 26.257C19.1798 25.7418 19.4858 25.3199 19.5293 25.3194C19.5727 25.319 19.6083 25.7134 19.6083 26.1963C19.6083 26.7803 19.6828 27.1202 19.8309 27.212C19.9533 27.288 20.147 27.3142 20.2613 27.2703C20.3755 27.2262 20.6871 26.8345 20.9535 26.3998C21.2199 25.965 21.7269 25.2423 22.0802 24.7936C22.6848 24.0257 22.7185 23.9282 22.6526 23.1307C22.5831 22.2898 22.5873 22.2803 23.2284 21.8387C23.5837 21.5942 24.3731 21.1423 24.9828 20.8345C25.5925 20.5268 26.6946 20.0867 27.4318 19.8562C28.169 19.6257 29.2344 19.3724 29.7993 19.2933C30.3641 19.2143 31.6084 19.1783 32.5642 19.2133C33.7097 19.2553 34.814 19.4094 35.8032 19.6652ZM28.3564 22.1452C28.1813 22.2494 28.0605 22.6428 27.9796 23.3719C27.8743 24.3209 27.8432 24.3947 27.7108 24.0089C27.6283 23.7689 27.4999 23.5727 27.4255 23.5727C27.3509 23.5727 27.2585 23.6262 27.2202 23.6917C27.1818 23.7572 27.0987 24.0524 27.0355 24.3481C26.9235 24.8713 26.9322 24.8831 27.367 24.7996C27.6682 24.7419 27.938 24.8123 28.1957 25.0157C28.4059 25.1818 28.7008 25.3175 28.8513 25.3175C29.0017 25.3175 29.312 25.1695 29.5409 24.9887C29.7999 24.7843 29.9573 24.5041 29.9573 24.2478C29.9573 24.0212 29.8539 23.721 29.7277 23.581C29.6016 23.4411 29.406 23.0438 29.2932 22.6983C29.1805 22.3528 28.9816 22.0526 28.8513 22.0311C28.7209 22.0096 28.4983 22.061 28.3564 22.1452ZM41.1425 28.5814C41.1681 28.9237 41.2925 29.4286 41.419 29.7034C41.5458 29.9783 41.6492 30.3189 41.6492 30.4604C41.6492 30.6017 41.4761 30.7965 41.2644 30.8934C41.0526 30.9901 40.7818 31.0319 40.6627 30.986C40.5406 30.9389 40.362 30.445 40.2535 29.854C40.0711 28.8601 40.0794 28.7805 40.4127 28.3278C40.6063 28.0651 40.8392 27.8748 40.9303 27.9047C41.0217 27.9347 41.1171 28.2393 41.1425 28.5814ZM39.7532 42.229C39.7532 42.3701 39.5399 42.7296 39.2792 43.0276C38.9547 43.3986 38.8052 43.7368 38.8052 44.0997C38.8052 44.3914 38.9087 44.7162 39.0353 44.8217C39.1618 44.927 39.3306 44.9729 39.4102 44.9234C39.49 44.8741 39.7419 44.4504 39.9702 43.982C40.1985 43.5136 40.3852 42.8698 40.3852 42.5513C40.3852 42.0781 40.3276 41.9723 40.0692 41.9723C39.8834 41.9723 39.7532 42.0781 39.7532 42.229Z" fill="#C28C59"/>
<circle cx="6" cy="54" r="6" fill="#C28C59"/>
<circle cx="58" cy="54" r="6" fill="#C28C59"/>
<circle cx="32" cy="6" r="6" fill="#C28C59"/>
</g>
<defs>
<clipPath id="clip0_399_470">
<rect width="64" height="60" fill="white"/>
</clipPath>
</defs>
</svg>
