<svg width="180" height="170" viewBox="0 0 180 170" fill="none" xmlns="http://www.w3.org/2000/svg">
<g clip-path="url(#clip0_398_463)">


<path fill-rule="evenodd" clip-rule="evenodd" d="M82.0356 54.7338C80.2481 55.0592 77.1514 55.8672 75.1539 56.53C73.1569 57.1928 70.5241 58.2344 69.3031 58.8451C68.0822 59.4561 65.4849 61.0166 63.5314 62.3141C61.5779 63.6111 58.5025 66.1459 56.6972 67.947C54.892 69.7486 52.4262 72.6261 51.2181 74.3421C50.0096 76.0581 48.3651 78.7658 47.5632 80.3592C46.7619 81.9527 45.5929 84.6907 44.9655 86.4432C44.3386 88.1962 43.5141 91.277 43.1337 93.2898C42.7532 95.3036 42.4424 99.3101 42.4424 102.199C42.4424 105.087 42.7443 109.048 43.1137 111.002C43.4831 112.956 44.2534 115.937 44.8261 117.625C45.3988 119.315 46.5186 122 47.3146 123.593C48.1107 125.187 49.6428 127.83 50.7199 129.466C51.797 131.102 54.1213 133.92 55.8848 135.727C57.6487 137.534 60.2504 139.869 61.6667 140.916C63.0826 141.963 65.7105 143.615 67.5059 144.587C69.3014 145.56 72.3941 146.95 74.3783 147.677C76.3624 148.404 79.7047 149.3 81.8052 149.668C83.9061 150.035 87.8149 150.336 90.4916 150.336C93.6528 150.336 96.9267 150.015 99.8334 149.421C102.295 148.917 105.838 147.913 107.707 147.19C109.577 146.466 112.887 144.822 115.064 143.537C117.95 141.833 120.355 139.871 123.94 136.296C127.067 133.179 129.626 130.144 130.967 127.963C132.127 126.077 133.736 122.962 134.542 121.043C135.349 119.123 136.447 115.853 136.983 113.776C137.584 111.448 138.055 107.932 138.211 104.611C138.365 101.342 138.255 97.7479 137.93 95.4738C137.635 93.412 136.697 89.6189 135.845 87.0449C134.994 84.4709 133.58 81.0612 132.704 79.4678C131.827 77.8744 130.143 75.246 128.96 73.6267C127.777 72.0074 125.259 69.199 123.363 67.3858C121.468 65.5727 118.718 63.2928 117.253 62.3198C115.788 61.3469 113.29 59.8903 111.703 59.0826C110.116 58.2754 107.019 57.0332 104.822 56.3228C102.624 55.6119 99.2629 54.8122 97.3529 54.5462C95.4424 54.2801 91.9461 54.0804 89.5833 54.1022C87.2199 54.1245 83.8235 54.4084 82.0356 54.7338ZM101.048 59.1276C103.367 59.7271 106.127 60.5909 107.179 61.0469L109.093 61.8759L104.96 63.0468C102.686 63.6909 98.7736 64.5373 96.266 64.9273C93.758 65.3177 91.1607 65.9243 90.4943 66.2756C89.8274 66.6268 88.5141 67.7108 87.5751 68.6846C86.0616 70.254 85.928 70.566 86.3937 71.44C86.7893 72.1822 87.2115 72.3752 88.1008 72.2214C88.7508 72.1086 89.6316 71.8666 90.0592 71.683C90.6603 71.4249 90.8362 71.5648 90.8362 72.3025C90.8362 72.8271 91.1363 73.3713 91.503 73.5126C91.8697 73.6539 92.6618 73.6459 93.263 73.4943C94.0728 73.2902 94.4799 72.7576 94.8333 71.4405C95.1135 70.3962 95.5779 69.6621 95.9592 69.6621C96.3158 69.6621 96.6079 69.8488 96.6079 70.0766C96.6079 70.3048 97.0572 70.5557 97.6069 70.6337C98.1565 70.7122 98.6058 71.0714 98.6058 71.4316C98.6058 71.7922 98.1188 72.331 97.5229 72.6292C96.9276 72.9269 96.1719 73.6851 95.8438 74.3136C95.3173 75.3231 94.9705 75.4564 92.874 75.4564C90.9294 75.4564 90.3846 75.2812 89.8594 74.4869C89.4385 73.8509 88.9617 73.616 88.4733 73.8041C87.976 73.9958 87.7283 74.6006 87.7283 75.6217C87.7283 76.8755 87.5076 77.2401 86.5074 77.6408C85.8356 77.9096 84.4873 78.6227 83.5105 79.2249C82.5337 79.8275 81.1854 80.3294 80.5136 80.3401C79.7638 80.3517 79.2927 80.6035 79.2927 80.9926C79.2927 81.3407 79.8921 81.7579 80.6246 81.9192C81.6573 82.147 81.9566 82.4554 81.9566 83.2916C81.9566 84.3038 81.8034 84.3707 79.4916 84.3707C77.0262 84.3707 77.0262 84.3707 77.1607 86.7107C77.2948 89.0506 77.2948 89.0506 79.8059 89.183C82.3175 89.3154 82.3175 89.3154 83.3529 87.2339C83.9225 86.0893 84.5903 85.1052 84.8376 85.0472C85.0844 84.9897 86.0456 84.6969 86.9731 84.3969C88.3978 83.9361 88.8267 83.961 89.7307 84.5556C90.3438 84.9586 91.0058 86.0225 91.2797 87.0436C91.543 88.0251 91.9386 88.8278 92.1592 88.8278C92.3794 88.8278 92.6831 88.6272 92.8341 88.3821C92.985 88.1369 93.5031 87.9364 93.9858 87.9364C94.7521 87.9364 94.7982 87.8093 94.3494 86.9335C94.0666 86.3822 93.3229 85.3793 92.6969 84.7049C91.5581 83.4792 91.5581 83.4792 92.6112 83.4792C93.1906 83.4792 94.1274 83.9151 94.6926 84.4482C95.3519 85.07 95.7199 85.9293 95.7199 86.8453C95.7199 87.6306 96.017 88.5207 96.3801 88.8229C96.7433 89.1255 97.3445 89.2561 97.7161 89.113C98.0877 88.97 98.62 88.3495 98.8988 87.7345C99.1781 87.1194 99.7757 86.4985 100.227 86.355C100.678 86.211 101.048 85.6926 101.048 85.2028C101.048 84.713 101.255 83.924 101.507 83.4498C101.819 82.8641 102.425 82.5936 103.394 82.6061C104.179 82.6163 105.721 83.0674 106.819 83.6089C108.405 84.3903 108.848 84.8592 108.963 85.8794C109.11 87.1653 109.11 87.1653 105.123 86.8524C102.329 86.6331 101.044 86.6901 100.826 87.044C100.656 87.3213 100.645 88.2377 100.802 89.0796C101.057 90.444 101.243 90.6111 102.511 90.6169C103.293 90.62 104.383 90.7439 104.933 90.8914C105.607 91.0733 105.931 91.4985 105.931 92.2023C105.931 93.0487 105.627 93.3019 104.311 93.5497C103.421 93.7173 100.956 93.7311 98.8349 93.58C96.7136 93.4289 94.3116 93.4971 93.4965 93.7315C92.4842 94.023 91.8298 94.0034 91.4289 93.6696C91.1065 93.4008 90.6275 92.3797 90.3651 91.4005C89.8874 89.6203 89.8874 89.6203 86.4772 89.9399C84.6014 90.1159 82.567 90.5153 81.9566 90.8273C81.3461 91.1393 80.2162 91.531 79.4459 91.6973C78.51 91.8997 77.6482 92.5758 76.8473 93.7355C76.1884 94.6903 75.1801 95.7796 74.6069 96.1567C74.0338 96.5337 73.3562 97.5963 73.1014 98.5181C72.8466 99.4393 72.6508 101.798 72.6667 103.759C72.6823 105.72 72.831 107.653 72.9971 108.055C73.1631 108.456 74.3827 109.76 75.7071 110.952C78.022 113.035 78.2107 113.116 80.5909 113.038C81.9526 112.994 83.9944 112.894 85.1288 112.815C86.6632 112.71 87.426 112.887 88.1088 113.507C88.6136 113.966 89.256 115.069 89.5366 115.959C89.8168 116.848 90.461 118.432 90.9676 119.478C91.8507 121.3 91.8591 121.474 91.1714 123.633C90.5627 125.543 90.5391 126.168 91.0164 127.748C91.3263 128.772 92.3612 130.663 93.3167 131.95C94.6855 133.793 95.3159 134.29 96.2891 134.29C96.9684 134.291 98.2013 134.007 99.0285 133.66C99.8556 133.313 100.774 132.561 101.069 131.989C101.364 131.416 103.206 129.289 105.162 127.263C108.717 123.577 108.717 123.577 108.48 120.949C108.242 118.32 108.242 118.32 111.194 115.497C113.562 113.231 114.296 112.194 114.909 110.246C115.329 108.911 115.566 107.711 115.435 107.58C115.305 107.449 114.594 107.689 113.857 108.114C113.12 108.539 111.75 109.009 110.813 109.16C109.11 109.433 109.11 109.433 109.331 107.71C109.503 106.362 109.2 105.23 107.936 102.504C107.048 100.588 106.387 98.5822 106.466 98.0469C106.576 97.3102 106.952 97.7782 108.015 99.9706C108.787 101.564 109.821 103.82 110.314 104.985C110.806 106.15 111.483 107.102 111.817 107.102C112.152 107.102 113.776 106.284 115.427 105.284C117.078 104.285 118.998 103.268 119.692 103.025C120.387 102.782 121.069 102.285 121.209 101.921C121.351 101.548 120.988 100.782 120.376 100.169C119.636 99.4251 118.794 99.0792 117.726 99.0792C116.337 99.0792 116.055 98.8706 115.22 97.2273L114.279 95.3758L115.978 96.7816C117.317 97.89 118.093 98.1878 119.639 98.1878C121.231 98.1878 121.966 98.4873 123.534 99.7781C124.598 100.653 125.705 101.806 125.994 102.341C126.283 102.876 126.672 104.411 126.857 105.752C127.064 107.254 127.491 108.411 127.968 108.761C128.395 109.074 128.982 109.331 129.271 109.331C129.561 109.331 130.059 108.679 130.376 107.882C130.694 107.086 131.655 105.631 132.512 104.651C133.369 103.67 134.254 102.793 134.48 102.702C134.723 102.604 134.769 103.693 134.593 105.377C134.431 106.938 134.096 109.319 133.849 110.668C133.603 112.016 132.986 114.423 132.479 116.016C131.972 117.61 130.798 120.44 129.87 122.305C128.942 124.171 126.943 127.349 125.428 129.368C123.913 131.387 121.227 134.273 119.46 135.782C117.693 137.29 114.875 139.341 113.199 140.339C111.522 141.337 108.651 142.771 106.819 143.526C104.988 144.28 101.891 145.269 99.9377 145.723C97.3449 146.325 94.7081 146.542 90.1702 146.526C85.3139 146.509 83.1025 146.291 80.059 145.529C77.9164 144.993 74.7534 143.951 73.0299 143.215C71.3068 142.479 68.2647 140.786 66.2699 139.452C64.2755 138.118 62.1546 136.632 61.5575 136.148C60.4862 135.281 60.4813 135.246 61.2098 133.554C61.6161 132.611 62.2345 130.69 62.5844 129.285C63.2206 126.731 63.2206 126.731 61.7089 125.793C60.8773 125.277 59.049 124.409 57.6465 123.864C55.0967 122.872 55.0954 122.871 53.6316 119.321C52.3653 116.251 51.8969 115.599 50.1663 114.5C49.0652 113.801 47.898 112.961 47.5717 112.633C47.2454 112.306 46.7295 110.278 46.4253 108.126C46.0826 105.702 45.9782 102.433 46.1509 99.5294C46.3965 95.3954 46.547 94.7473 47.4314 94.0159C47.9824 93.5599 49.5829 92.6043 50.9877 91.8921C53.0779 90.8331 53.5419 90.3945 53.5419 89.4772C53.5419 88.8608 52.9163 87.1122 52.1513 85.5915C50.957 83.2163 50.8287 82.6471 51.2394 81.5546C51.5022 80.8549 52.4777 79.0983 53.4069 77.6506C54.3357 76.2029 55.1957 75.0173 55.3178 75.016C55.4399 75.0147 55.5398 76.1232 55.5398 77.4799C55.5398 79.121 55.7493 80.0762 56.1653 80.3343C56.5094 80.5478 57.0538 80.6213 57.3747 80.4978C57.6957 80.3739 58.5713 79.2735 59.3198 78.0518C60.0684 76.8301 61.4931 74.7994 62.4858 73.5385C64.185 71.3808 64.2795 71.1067 64.0944 68.8656C63.899 66.5029 63.911 66.4761 65.7122 65.2353C66.7108 64.548 68.9289 63.2781 70.6422 62.4134C72.3555 61.5488 75.4523 60.3119 77.5239 59.6643C79.5955 59.0167 82.5892 58.3049 84.1765 58.0824C85.7637 57.8605 89.26 57.7593 91.9461 57.8578C95.165 57.9759 98.2679 58.4087 101.048 59.1276ZM80.122 66.0964C79.6301 66.3892 79.2905 67.4946 79.0632 69.5435C78.7675 72.2102 78.68 72.4175 78.3079 71.3335C78.0762 70.6592 77.7152 70.1078 77.5061 70.1078C77.2966 70.1078 77.0368 70.258 76.9294 70.4421C76.8215 70.6262 76.588 71.4556 76.4104 72.2865C76.0956 73.7569 76.12 73.7899 77.3418 73.5554C78.1881 73.3932 78.9464 73.5911 79.6705 74.1625C80.261 74.6291 81.0899 75.0107 81.5126 75.0107C81.9353 75.0107 82.8072 74.5948 83.4506 74.0867C84.1782 73.5122 84.6204 72.725 84.6204 72.0048C84.6204 71.3678 84.3301 70.5245 83.9753 70.131C83.621 69.7379 83.0714 68.6214 82.7544 67.6506C82.4378 66.6798 81.8789 65.8361 81.5126 65.7759C81.1463 65.7153 80.5207 65.8597 80.122 66.0964ZM116.051 84.1821C116.123 85.144 116.472 86.5627 116.828 87.3351C117.184 88.1075 117.475 89.0645 117.475 89.462C117.475 89.8592 116.988 90.4065 116.393 90.6788C115.798 90.9507 115.037 91.068 114.703 90.9391C114.36 90.8068 113.858 89.4188 113.553 87.7581C113.04 84.9652 113.064 84.7415 114 83.4694C114.544 82.7313 115.199 82.1965 115.455 82.2807C115.711 82.3649 115.98 83.2207 116.051 84.1821ZM112.147 122.532C112.147 122.928 111.548 123.938 110.815 124.776C109.903 125.818 109.483 126.769 109.483 127.789C109.483 128.608 109.774 129.521 110.13 129.817C110.485 130.113 110.96 130.242 111.183 130.103C111.408 129.965 112.115 128.774 112.757 127.458C113.398 126.142 113.923 124.332 113.923 123.437C113.923 122.108 113.761 121.811 113.035 121.811C112.513 121.811 112.147 122.108 112.147 122.532Z" fill="#C28C59"/>
<circle cx="16" cy="154" r="16" fill="#C28C59"/>
<circle cx="164" cy="154" r="16" fill="#C28C59"/>
<circle cx="90" cy="16" r="16" fill="#C28C59"/>
</g>
<defs>
<clipPath id="clip0_398_463">
<rect width="180" height="170" fill="white"/>
</clipPath>
</defs>
</svg>
