<svg width="164" height="46" viewBox="0 0 164 46" fill="none" xmlns="http://www.w3.org/2000/svg">
<path fill-rule="evenodd" clip-rule="evenodd" d="M28.0331 0.974536C27.9054 1.01276 27.5408 1.30201 27.2232 1.61747C26.693 2.1439 26.6457 2.21744 26.6457 2.51482C26.6457 2.75122 26.695 2.88502 26.8285 3.01044C26.9848 3.15712 27.1033 3.18216 27.6424 3.18216C28.0278 3.18216 28.3103 3.21904 28.3682 3.27694C28.436 3.34463 28.4631 3.84318 28.4631 5.01934V6.66696L28.876 7.10343C29.1032 7.34347 29.3595 7.57758 29.4456 7.62362C29.5317 7.66967 29.7075 7.70442 29.8361 7.70071C30.0209 7.6955 30.2211 7.5444 30.7877 6.98235L31.5053 6.27062L32.9022 6.24684L34.299 6.22307L35.1542 5.37525L36.0093 4.5275V3.61523V2.70304L35.094 1.79732L34.1786 0.891602L31.2221 0.898394C29.596 0.902106 28.161 0.936386 28.0331 0.974536ZM52.7023 2.10307C52.5829 2.15354 52.0988 2.57698 51.6266 3.04393L50.7679 3.89302H47.4258H44.0837L40.7379 7.23415C37.7217 10.2462 37.3922 10.6002 37.3922 10.8283C37.3922 11.0184 37.6165 11.4211 38.2946 12.4483C38.791 13.2002 39.2564 13.8646 39.3288 13.9247C39.4013 13.9848 39.5868 14.0304 39.7411 14.026C39.9868 14.0191 40.1208 13.9192 40.8243 13.2183L41.6272 12.4185L42.6788 12.4126L43.7305 12.4067L45.0508 13.7182L46.3713 15.0299H47.2185C48.0657 15.0299 48.0657 15.0299 48.3838 15.3264C48.6049 15.5326 48.6862 15.6634 48.6506 15.756C48.6056 15.8733 48.4201 15.8922 47.1071 15.9137L45.6147 15.9382L45.1557 16.3923C44.9033 16.6422 44.6288 16.8465 44.5457 16.8465C44.4611 16.8465 44.0566 16.5145 43.6269 16.0924L42.859 15.3384L40.7563 15.3618L38.6535 15.3853L36.7225 17.3204L34.7913 19.2555L34.7875 21.1488L34.7838 23.0421L36.5443 24.8018C38.2316 26.4886 38.3175 26.5616 38.6102 26.5616C38.8897 26.5616 38.9805 26.498 39.6797 25.8113C40.1 25.3986 40.5001 25.0609 40.5689 25.0609C40.6377 25.0609 40.7156 25.1172 40.742 25.1859C40.7684 25.2546 40.7899 25.7925 40.7899 26.3812V27.4517L41.5011 28.1766L42.2123 28.9015V31.0833C42.2123 32.4102 42.2447 33.3522 42.2951 33.4874C42.3406 33.6097 43.0887 34.4223 43.9576 35.2932L45.5372 36.8767L45.5359 38.0644C45.5346 39.1451 45.5488 39.2674 45.693 39.4221C45.7802 39.5157 45.9368 39.6136 46.0412 39.6398C46.1455 39.666 46.2968 39.6664 46.3774 39.6409C46.458 39.6153 47.1896 38.9257 48.003 38.1086L49.482 36.6227V35.4984V34.3741L50.4281 33.4101L51.3744 32.446L51.3763 31.0677L51.3784 29.6894L53.1761 27.8864L54.9737 26.0833L54.9963 24.6835C55.0088 23.9137 54.9994 23.2048 54.9756 23.1083C54.9518 23.0117 54.8549 22.8606 54.7603 22.7726C54.66 22.6791 54.4804 22.6124 54.3293 22.6124C54.1199 22.6124 53.9756 22.7035 53.578 23.0863C53.3074 23.347 53.0304 23.5602 52.9626 23.5602C52.8947 23.5602 51.8704 22.5914 50.6864 21.4073C49.5024 20.2233 48.5337 19.2115 48.5337 19.159C48.5337 19.1066 48.6087 19.0236 48.7002 18.9746C48.8521 18.8933 49.0244 19.0422 50.6559 20.6637C51.6516 21.6532 52.5152 22.4487 52.6032 22.4573C52.6901 22.4657 52.8305 22.4685 52.9152 22.4635C53.0032 22.4583 53.8183 21.7085 54.814 20.7168L56.5586 18.9791H57.6401C58.6284 18.9791 58.7286 18.9923 58.8034 19.1319C58.8504 19.2198 58.8852 19.8475 58.8852 20.6101V21.9356L60.1325 23.1823C61.1196 24.1689 61.4237 24.429 61.5906 24.429C61.7065 24.429 61.8902 24.3886 61.9987 24.3392C62.1073 24.2897 62.2334 24.1422 62.279 24.0114C62.3247 23.8806 62.362 23.3073 62.362 22.7373V21.7011L63.1338 20.9325C63.5583 20.5097 63.9412 20.1639 63.9848 20.1639C64.0282 20.1639 64.4099 20.5111 64.8328 20.9354L65.6017 21.7069V23.9148V26.1226L67.0856 27.6059C68.4536 28.9733 68.5914 29.0891 68.8498 29.0891C69.0487 29.0891 69.1855 29.0301 69.3216 28.8855C69.5101 28.6851 69.5135 28.6554 69.5371 27.0075L69.5611 25.3332L70.5916 24.3084C71.1584 23.7449 71.6566 23.2195 71.6988 23.1409C71.7411 23.0624 71.7542 22.9003 71.7279 22.7808C71.6996 22.6522 71.4072 22.292 71.0115 21.8986C70.6437 21.5328 70.3428 21.1795 70.3428 21.1131C70.3428 21.0468 72.1373 19.1991 74.3307 17.007C77.0545 14.2848 78.3335 12.9535 78.3656 12.8072C78.3932 12.6816 78.3637 12.5005 78.2945 12.3699C78.2295 12.2472 77.5072 11.4822 76.6893 10.6697C75.8716 9.85731 75.1135 9.16122 75.0049 9.12275C74.8962 9.08437 74.4162 9.06044 73.9381 9.0696C73.4601 9.07868 73.0068 9.05388 72.9307 9.01431C72.8546 8.97481 72.7924 8.88288 72.7924 8.81005C72.7924 8.73715 72.942 8.52515 73.1249 8.33891C73.4574 8.00022 73.4574 8.00022 74.6078 8.00022H75.7583L76.6215 8.86574C77.0962 9.3417 77.5838 9.77224 77.705 9.82248C77.8263 9.87271 78.0062 9.89341 78.1049 9.8686C78.2035 9.84372 78.9153 9.18878 79.6867 8.41315C80.9535 7.13953 81.0893 6.9769 81.0893 6.73394C81.0893 6.49027 80.9529 6.32875 79.6428 5.021L78.1963 3.57708H74.4199H70.6435L69.8807 2.83897L69.118 2.10078L65.2461 2.04549C63.1166 2.01508 59.4719 1.99494 57.1468 2.00071C54.1332 2.00821 52.8569 2.03759 52.7023 2.10307ZM15.8638 3.18216L15.1387 3.89302H9.81726C4.49593 3.89302 4.49593 3.89302 4.25137 4.07966C4.11688 4.18234 3.28679 4.98933 2.40676 5.87293C0.949111 7.33643 0.806641 7.50357 0.806641 7.75047C0.806641 7.98585 0.902887 8.11981 1.53756 8.76827C1.93953 9.17907 2.36599 9.56594 2.48507 9.62818C2.60897 9.69279 2.78613 9.72004 2.89889 9.69176C3.00738 9.66459 3.54036 9.20174 4.08338 8.6633L5.07063 7.68428H6.13042C7.02396 7.68428 7.19773 7.70387 7.23818 7.80924C7.26458 7.87795 7.28615 8.14082 7.28615 8.39341C7.28615 8.81321 7.30835 8.87206 7.54391 9.07805C7.68567 9.20205 8.21904 9.61957 8.72918 10.006C9.34963 10.4759 9.6567 10.7589 9.6567 10.8608C9.6567 10.9463 9.34458 11.3313 8.94569 11.738L8.2346 12.4629L8.23453 14.7557L8.23437 17.0486L11.2677 20.0771C12.9361 21.7428 14.3495 23.1362 14.4087 23.1737C14.4679 23.2112 14.8302 23.2424 15.2138 23.2431C15.8801 23.2442 15.9217 23.2339 16.1423 23.0134C16.2988 22.8569 16.3733 22.7031 16.3733 22.5361C16.3733 22.325 16.2093 22.1236 15.2275 21.1283L14.0817 19.9668V18.7272C14.0817 18.0455 14.1123 17.4688 14.1497 17.4457C14.1871 17.4226 15.0672 17.4007 16.1054 17.3972L17.9931 17.3906L20.4049 14.986L22.8166 12.5813H24.1912H25.5658L26.6193 11.5386C27.6193 10.5488 27.6729 10.4798 27.6729 10.1822C27.6729 9.8848 27.6158 9.81111 26.5666 8.75334C25.9582 8.13987 25.4604 7.58563 25.4604 7.52158C25.4604 7.45752 25.8515 7.01536 26.3296 6.53901C27.1454 5.7261 27.1988 5.65351 27.1988 5.35826C27.1988 5.05694 27.1443 4.98917 25.912 3.75748L24.6254 2.4713H20.6072H16.5891L15.8638 3.18216ZM20.7533 23.1653L19.2464 23.2048L18.3437 24.1436C17.8473 24.6599 17.3608 25.1911 17.2628 25.3239C17.0877 25.5611 17.0844 25.6058 17.0844 27.7773V29.9891L18.7542 31.6648C19.8518 32.7662 20.4306 33.4038 20.4431 33.5252C20.4535 33.6267 20.4666 35.7692 20.4721 38.2863L20.4822 42.8628L21.8894 44.2694C23.2109 45.5903 23.3145 45.6759 23.5919 45.6759C23.8 45.6759 23.9444 45.6187 24.0811 45.482C24.2359 45.3274 24.2738 45.2116 24.2685 44.9094C24.2647 44.7011 24.2368 44.3314 24.2063 44.088C24.1602 43.7209 24.094 43.5808 23.8178 43.2673C23.4849 42.8892 23.4849 42.8892 23.4861 41.6168C23.4868 40.917 23.5187 40.295 23.557 40.2345C23.5953 40.1741 23.7636 40.1168 23.9311 40.1073C24.0986 40.0979 24.3043 40.0851 24.3883 40.0791C24.4724 40.073 25.1419 39.4726 25.8762 38.745C26.6104 38.0174 27.2618 37.3261 27.3235 37.2088C27.403 37.0579 27.4358 36.7111 27.4358 36.0246V35.0538L29.1545 33.3348L30.8731 31.6158L30.8988 30.4656L30.9245 29.3155L29.8716 28.2292C29.2924 27.6317 28.737 27.1009 28.6371 27.0497C28.5297 26.9945 28.0958 26.9565 27.5741 26.9565H26.6926L24.7924 25.0702C23.0233 23.314 22.8705 23.182 22.5762 23.1549C22.4024 23.1389 21.5821 23.1436 20.7533 23.1653ZM79.0033 30.9807L78.2045 31.7664L76.3078 31.7903L74.4111 31.8141L73.0289 33.0084C72.2686 33.6653 71.5755 34.282 71.4886 34.379C71.3416 34.543 71.3288 34.6862 71.3057 36.4231C71.2921 37.4504 71.3032 38.4427 71.3305 38.6282C71.3587 38.8193 71.453 39.0333 71.5481 39.1218C71.6488 39.2157 71.8261 39.2782 71.9917 39.2782C72.228 39.2782 72.3545 39.1935 72.8764 38.6858L73.4854 38.0934H74.4595H75.4337L76.7457 39.3966C77.8474 40.491 78.0948 40.6997 78.2895 40.6987C78.4169 40.698 78.5746 40.6643 78.6397 40.6237C78.7049 40.5831 79.7094 39.5981 80.872 38.4348L82.9858 36.3196V34.6092V32.8989L81.8966 31.8036C81.2975 31.2012 80.674 30.5928 80.511 30.4516C80.3397 30.3032 80.1276 30.1949 80.0083 30.1949C79.8534 30.1949 79.6035 30.3902 79.0033 30.9807Z" fill="#202020"/>
<path fill-rule="evenodd" clip-rule="evenodd" d="M108.961 0.974536C108.833 1.01276 108.469 1.30201 108.151 1.61747C107.621 2.1439 107.573 2.21744 107.573 2.51482C107.573 2.75122 107.623 2.88502 107.756 3.01044C107.913 3.15712 108.031 3.18216 108.57 3.18216C108.956 3.18216 109.238 3.21904 109.296 3.27694C109.364 3.34463 109.391 3.84318 109.391 5.01934V6.66696L109.804 7.10343C110.031 7.34347 110.287 7.57758 110.373 7.62362C110.459 7.66967 110.635 7.70442 110.764 7.70071C110.949 7.6955 111.149 7.5444 111.715 6.98235L112.433 6.27062L113.83 6.24684L115.227 6.22307L116.082 5.37525L116.937 4.5275V3.61523V2.70304L116.022 1.79732L115.106 0.891602L112.15 0.898394C110.524 0.902106 109.089 0.936386 108.961 0.974536ZM133.63 2.10307C133.511 2.15354 133.027 2.57698 132.554 3.04393L131.696 3.89302H128.354H125.011L121.666 7.23415C118.649 10.2462 118.32 10.6002 118.32 10.8283C118.32 11.0184 118.544 11.4211 119.222 12.4483C119.719 13.2002 120.184 13.8646 120.257 13.9247C120.329 13.9848 120.515 14.0304 120.669 14.026C120.915 14.0191 121.049 13.9192 121.752 13.2183L122.555 12.4185L123.607 12.4126L124.658 12.4067L125.979 13.7182L127.299 15.0299H128.146C128.993 15.0299 128.993 15.0299 129.311 15.3264C129.533 15.5326 129.614 15.6634 129.578 15.756C129.533 15.8733 129.348 15.8922 128.035 15.9137L126.542 15.9382L126.083 16.3923C125.831 16.6422 125.557 16.8465 125.473 16.8465C125.389 16.8465 124.984 16.5145 124.555 16.0924L123.787 15.3384L121.684 15.3618L119.581 15.3853L117.65 17.3204L115.719 19.2555L115.715 21.1488L115.711 23.0421L117.472 24.8018C119.159 26.4886 119.245 26.5616 119.538 26.5616C119.817 26.5616 119.908 26.498 120.607 25.8113C121.028 25.3986 121.428 25.0609 121.497 25.0609C121.565 25.0609 121.643 25.1172 121.67 25.1859C121.696 25.2546 121.718 25.7925 121.718 26.3812V27.4517L122.429 28.1766L123.14 28.9015V31.0833C123.14 32.4102 123.172 33.3522 123.223 33.4874C123.268 33.6097 124.016 34.4223 124.885 35.2932L126.465 36.8767L126.464 38.0644C126.462 39.1451 126.477 39.2674 126.621 39.4221C126.708 39.5157 126.865 39.6136 126.969 39.6398C127.073 39.666 127.225 39.6664 127.305 39.6409C127.386 39.6153 128.117 38.9257 128.931 38.1086L130.41 36.6227V35.4984V34.3741L131.356 33.4101L132.302 32.446L132.304 31.0677L132.306 29.6894L134.104 27.8864L135.901 26.0833L135.924 24.6835C135.936 23.9137 135.927 23.2048 135.903 23.1083C135.88 23.0117 135.783 22.8606 135.688 22.7726C135.588 22.6791 135.408 22.6124 135.257 22.6124C135.048 22.6124 134.903 22.7035 134.506 23.0863C134.235 23.347 133.958 23.5602 133.89 23.5602C133.822 23.5602 132.798 22.5914 131.614 21.4073C130.43 20.2233 129.461 19.2115 129.461 19.159C129.461 19.1066 129.536 19.0236 129.628 18.9746C129.78 18.8933 129.952 19.0422 131.584 20.6637C132.579 21.6532 133.443 22.4487 133.531 22.4573C133.618 22.4657 133.758 22.4685 133.843 22.4635C133.931 22.4583 134.746 21.7085 135.742 20.7168L137.486 18.9791H138.568C139.556 18.9791 139.656 18.9923 139.731 19.1319C139.778 19.2198 139.813 19.8475 139.813 20.6101V21.9356L141.06 23.1823C142.047 24.1689 142.351 24.429 142.518 24.429C142.634 24.429 142.818 24.3886 142.926 24.3392C143.035 24.2897 143.161 24.1422 143.207 24.0114C143.252 23.8806 143.29 23.3073 143.29 22.7373V21.7011L144.062 20.9325C144.486 20.5097 144.869 20.1639 144.912 20.1639C144.956 20.1639 145.338 20.5111 145.761 20.9354L146.529 21.7069V23.9148V26.1226L148.013 27.6059C149.381 28.9733 149.519 29.0891 149.777 29.0891C149.976 29.0891 150.113 29.0301 150.249 28.8855C150.438 28.6851 150.441 28.6554 150.465 27.0075L150.489 25.3332L151.519 24.3084C152.086 23.7449 152.584 23.2195 152.627 23.1409C152.669 23.0624 152.682 22.9003 152.656 22.7808C152.627 22.6522 152.335 22.292 151.939 21.8986C151.571 21.5328 151.271 21.1795 151.271 21.1131C151.271 21.0468 153.065 19.1991 155.258 17.007C157.982 14.2848 159.261 12.9535 159.293 12.8072C159.321 12.6816 159.291 12.5005 159.222 12.3699C159.157 12.2472 158.435 11.4822 157.617 10.6697C156.799 9.85731 156.041 9.16122 155.933 9.12275C155.824 9.08437 155.344 9.06044 154.866 9.0696C154.388 9.07868 153.935 9.05388 153.858 9.01431C153.782 8.97481 153.72 8.88288 153.72 8.81005C153.72 8.73715 153.87 8.52515 154.053 8.33891C154.385 8.00022 154.385 8.00022 155.536 8.00022H156.686L157.549 8.86574C158.024 9.3417 158.512 9.77224 158.633 9.82248C158.754 9.87271 158.934 9.89341 159.033 9.8686C159.131 9.84372 159.843 9.18878 160.614 8.41315C161.881 7.13953 162.017 6.9769 162.017 6.73394C162.017 6.49027 161.881 6.32875 160.571 5.021L159.124 3.57708H155.348H151.571L150.808 2.83897L150.046 2.10078L146.174 2.04549C144.044 2.01508 140.4 1.99494 138.074 2.00071C135.061 2.00821 133.785 2.03759 133.63 2.10307ZM96.7916 3.18216L96.0664 3.89302H90.745C85.4237 3.89302 85.4237 3.89302 85.1791 4.07966C85.0446 4.18234 84.2145 4.98933 83.3345 5.87293C81.8768 7.33643 81.7344 7.50357 81.7344 7.75047C81.7344 7.98585 81.8306 8.11981 82.4653 8.76827C82.8673 9.17907 83.2937 9.56594 83.4128 9.62818C83.5367 9.69279 83.7139 9.72004 83.8266 9.69176C83.9351 9.66459 84.4681 9.20174 85.0111 8.6633L85.9984 7.68428H87.0582C87.9517 7.68428 88.1255 7.70387 88.1659 7.80924C88.1923 7.87795 88.2139 8.14082 88.2139 8.39341C88.2139 8.81321 88.2361 8.87206 88.4716 9.07805C88.6134 9.20205 89.1468 9.61957 89.6569 10.006C90.2774 10.4759 90.5844 10.7589 90.5844 10.8608C90.5844 10.9463 90.2723 11.3313 89.8734 11.738L89.1623 12.4629L89.1623 14.7557L89.1621 17.0486L92.1955 20.0771C93.8639 21.7428 95.2773 23.1362 95.3364 23.1737C95.3956 23.2112 95.7579 23.2424 96.1416 23.2431C96.8078 23.2442 96.8494 23.2339 97.07 23.0134C97.2266 22.8569 97.301 22.7031 97.301 22.5361C97.301 22.325 97.137 22.1236 96.1552 21.1283L95.0095 19.9668V18.7272C95.0095 18.0455 95.04 17.4688 95.0774 17.4457C95.1149 17.4226 95.9949 17.4007 97.0331 17.3972L98.9209 17.3906L101.333 14.986L103.744 12.5813H105.119H106.494L107.547 11.5386C108.547 10.5488 108.601 10.4798 108.601 10.1822C108.601 9.8848 108.544 9.81111 107.494 8.75334C106.886 8.13987 106.388 7.58563 106.388 7.52158C106.388 7.45752 106.779 7.01536 107.257 6.53901C108.073 5.7261 108.127 5.65351 108.127 5.35826C108.127 5.05694 108.072 4.98917 106.84 3.75748L105.553 2.4713H101.535H97.5168L96.7916 3.18216ZM101.681 23.1653L100.174 23.2048L99.2715 24.1436C98.775 24.6599 98.2886 25.1911 98.1905 25.3239C98.0154 25.5611 98.0122 25.6058 98.0122 27.7773V29.9891L99.682 31.6648C100.78 32.7662 101.358 33.4038 101.371 33.5252C101.381 33.6267 101.394 35.7692 101.4 38.2863L101.41 42.8628L102.817 44.2694C104.139 45.5903 104.242 45.6759 104.52 45.6759C104.728 45.6759 104.872 45.6187 105.009 45.482C105.164 45.3274 105.201 45.2116 105.196 44.9094C105.192 44.7011 105.165 44.3314 105.134 44.088C105.088 43.7209 105.022 43.5808 104.746 43.2673C104.413 42.8892 104.413 42.8892 104.414 41.6168C104.415 40.917 104.446 40.295 104.485 40.2345C104.523 40.1741 104.691 40.1168 104.859 40.1073C105.026 40.0979 105.232 40.0851 105.316 40.0791C105.4 40.073 106.07 39.4726 106.804 38.745C107.538 38.0174 108.189 37.3261 108.251 37.2088C108.331 37.0579 108.364 36.7111 108.364 36.0246V35.0538L110.082 33.3348L111.801 31.6158L111.827 30.4656L111.852 29.3155L110.799 28.2292C110.22 27.6317 109.665 27.1009 109.565 27.0497C109.457 26.9945 109.024 26.9565 108.502 26.9565H107.62L105.72 25.0702C103.951 23.314 103.798 23.182 103.504 23.1549C103.33 23.1389 102.51 23.1436 101.681 23.1653ZM159.931 30.9807L159.132 31.7664L157.236 31.7903L155.339 31.8141L153.957 33.0084C153.196 33.6653 152.503 34.282 152.416 34.379C152.269 34.543 152.257 34.6862 152.233 36.4231C152.22 37.4504 152.231 38.4427 152.258 38.6282C152.286 38.8193 152.381 39.0333 152.476 39.1218C152.577 39.2157 152.754 39.2782 152.919 39.2782C153.156 39.2782 153.282 39.1935 153.804 38.6858L154.413 38.0934H155.387H156.361L157.673 39.3966C158.775 40.491 159.022 40.6997 159.217 40.6987C159.345 40.698 159.502 40.6643 159.567 40.6237C159.633 40.5831 160.637 39.5981 161.8 38.4348L163.913 36.3196V34.6092V32.8989L162.824 31.8036C162.225 31.2012 161.602 30.5928 161.439 30.4516C161.267 30.3032 161.055 30.1949 160.936 30.1949C160.781 30.1949 160.531 30.3902 159.931 30.9807Z" fill="#202020"/>
</svg>
