<svg width="286" height="79" viewBox="0 0 286 79" fill="none" xmlns="http://www.w3.org/2000/svg">
<path fill-rule="evenodd" clip-rule="evenodd" d="M47.715 0.145344C47.4911 0.212341 46.8523 0.719243 46.2956 1.2721C45.3664 2.19469 45.2835 2.32356 45.2835 2.84472C45.2835 3.25902 45.37 3.49351 45.6039 3.71332C45.8778 3.97037 46.0855 4.01425 47.0303 4.01425C47.7058 4.01425 48.2008 4.07889 48.3023 4.18036C48.421 4.29898 48.4685 5.17271 48.4685 7.23396V10.1214L49.1922 10.8864C49.5904 11.307 50.0395 11.7173 50.1904 11.798C50.3413 11.8787 50.6493 11.9396 50.8748 11.9331C51.1987 11.924 51.5495 11.6592 52.5425 10.6742L53.8001 9.42684L56.2481 9.38518L58.6961 9.34351L60.1949 7.85769L61.6935 6.372V4.77322V3.17458L60.0893 1.58729L58.485 0L53.3037 0.0119036C50.4539 0.0184094 47.9391 0.0784864 47.715 0.145344ZM90.9483 2.12312C90.739 2.21158 89.8907 2.95366 89.0631 3.77201L87.5583 5.26005H81.7012H75.8441L69.9805 11.1155C64.6944 16.3942 64.1169 17.0146 64.1169 17.4144C64.1169 17.7474 64.5101 18.4532 65.6985 20.2534C66.5685 21.5711 67.384 22.7355 67.511 22.8408C67.638 22.9461 67.9631 23.026 68.2334 23.0184C68.6641 23.0062 68.899 22.8311 70.1319 21.6028L71.539 20.2012L73.3819 20.1909L75.225 20.1805L77.539 22.479L79.853 24.7776H81.3378C82.8226 24.7776 82.8226 24.7776 83.38 25.2973C83.7676 25.6587 83.91 25.8879 83.8476 26.0503C83.7688 26.2557 83.4437 26.2889 81.1425 26.3266L78.5271 26.3695L77.7227 27.1654C77.2804 27.6032 76.7994 27.9613 76.6537 27.9613C76.5055 27.9613 75.7966 27.3795 75.0434 26.6398L73.6977 25.3183L70.0126 25.3594L66.3275 25.4005L62.9433 28.7919L59.5589 32.1832L59.5523 35.5012L59.5457 38.8193L62.631 41.9032C65.5882 44.8593 65.7385 44.9873 66.2516 44.9873C66.7414 44.9873 66.9006 44.8757 68.126 43.6723C68.8624 42.949 69.5637 42.3573 69.6842 42.3573C69.8048 42.3573 69.9413 42.4558 69.9876 42.5763C70.0338 42.6967 70.0716 43.6393 70.0716 44.6711V46.5472L71.318 47.8176L72.5643 49.0879V52.9116C72.5643 55.2371 72.6212 56.8879 72.7094 57.1249C72.7892 57.3391 74.1003 58.7634 75.6229 60.2896L78.3913 63.0647L78.389 65.1462C78.3868 67.0401 78.4117 67.2545 78.6644 67.5257C78.8172 67.6896 79.0916 67.8612 79.2746 67.907C79.4574 67.953 79.7225 67.9538 79.8638 67.9089C80.0051 67.8641 81.2871 66.6557 82.7126 65.2236L85.3046 62.6195V60.6492V58.6788L86.9628 56.9894L88.6211 55.2998L88.6246 52.8843L88.6282 50.4688L91.7786 47.3089L94.9291 44.149L94.9687 41.6959C94.9904 40.3467 94.9741 39.1043 94.9324 38.9352C94.8906 38.7659 94.7208 38.5012 94.555 38.3469C94.3793 38.1831 94.0644 38.0662 93.7996 38.0662C93.4328 38.0662 93.1798 38.2258 92.4831 38.8967C92.0088 39.3535 91.5234 39.7272 91.4044 39.7272C91.2855 39.7272 89.4905 38.0294 87.4155 35.9543C85.3405 33.8792 83.6428 32.1061 83.6428 32.0141C83.6428 31.9222 83.7741 31.7767 83.9346 31.6908C84.2008 31.5484 84.5028 31.8093 87.362 34.651C89.1069 36.3852 90.6205 37.7794 90.7746 37.7943C90.927 37.8091 91.173 37.814 91.3215 37.8052C91.4756 37.7961 92.9041 36.4821 94.6491 34.744L97.7066 31.6987H99.6018C101.334 31.6987 101.51 31.7219 101.641 31.9664C101.723 32.1205 101.784 33.2206 101.784 34.5572V36.88L103.97 39.0649C105.7 40.7941 106.233 41.2499 106.525 41.2499C106.728 41.2499 107.05 41.179 107.24 41.0924C107.431 41.0057 107.652 40.7473 107.732 40.5181C107.812 40.2888 107.877 39.284 107.877 38.2852V36.4691L109.23 35.1221C109.974 34.3812 110.645 33.7751 110.721 33.7751C110.797 33.7751 111.466 34.3836 112.207 35.1272L113.555 36.4793V40.3486V44.2179L116.155 46.8174C118.553 49.2138 118.794 49.4168 119.247 49.4168C119.596 49.4168 119.836 49.3133 120.074 49.06C120.404 48.7086 120.41 48.6566 120.452 45.7687L120.494 42.8344L122.3 41.0385C123.293 40.0509 124.166 39.1301 124.24 38.9924C124.314 38.8548 124.337 38.5707 124.291 38.3613C124.242 38.1359 123.729 37.5047 123.036 36.8153C122.391 36.1742 121.864 35.5549 121.864 35.4386C121.864 35.3225 125.009 32.0844 128.853 28.2426C133.626 23.4719 135.868 21.1388 135.924 20.8823C135.972 20.6622 135.921 20.3449 135.799 20.116C135.685 19.901 134.419 18.5602 132.986 17.1364C131.553 15.7126 130.225 14.4927 130.034 14.4253C129.844 14.358 129.002 14.3161 128.165 14.3321C127.327 14.348 126.532 14.3046 126.399 14.2352C126.266 14.166 126.157 14.0049 126.157 13.8773C126.157 13.7495 126.419 13.378 126.739 13.0516C127.322 12.458 127.322 12.458 129.338 12.458H131.354L132.867 13.9749C133.699 14.809 134.554 15.5635 134.766 15.6516C134.979 15.7396 135.294 15.7759 135.467 15.7324C135.64 15.6888 136.887 14.541 138.239 13.1817C140.459 10.9496 140.697 10.6646 140.697 10.2388C140.697 9.8118 140.458 9.52872 138.162 7.23686L135.627 4.70636H129.009H122.391L121.054 3.41281L119.717 2.11911L112.932 2.02221C109.2 1.96892 102.812 1.93363 98.7373 1.94373C93.4561 1.95688 91.2193 2.00837 90.9483 2.12312ZM26.3881 4.01425L25.1172 5.26005H15.7913C6.46556 5.26005 6.46556 5.26006 6.03696 5.58715C5.80127 5.7671 4.34652 7.18135 2.80425 8.72989C0.249682 11.2947 0 11.5876 0 12.0203C0 12.4328 0.168675 12.6676 1.28096 13.804C1.98541 14.524 2.73279 15.202 2.94149 15.311C3.15862 15.4243 3.4691 15.472 3.66671 15.4225C3.85685 15.3749 4.79091 14.5637 5.74256 13.6201L7.47274 11.9043H9.33005C10.896 11.9043 11.2005 11.9387 11.2714 12.1233C11.3177 12.2437 11.3555 12.7044 11.3555 13.1471C11.3555 13.8828 11.3944 13.9859 11.8072 14.3469C12.0556 14.5643 12.9904 15.296 13.8844 15.9731C14.9718 16.7967 15.5099 17.2927 15.5099 17.4713C15.5099 17.621 14.9629 18.2958 14.2639 19.0086L13.0177 20.2789L13.0175 24.2972L13.0173 28.3156L18.3333 33.6229C21.2572 36.5421 23.7342 38.9842 23.8379 39.0499C23.9417 39.1156 24.5766 39.1702 25.2489 39.1715C26.4166 39.1734 26.4894 39.1554 26.8761 38.7689C27.1504 38.4947 27.2809 38.2252 27.2809 37.9325C27.2809 37.5625 26.9935 37.2095 25.2729 35.4652L23.2649 33.4297V31.2573C23.2649 30.0626 23.3185 29.052 23.384 29.0114C23.4496 28.971 24.9919 28.9326 26.8114 28.9264L30.1197 28.9149L34.3463 24.7008L38.5729 20.4865H40.9819H43.391L45.2373 18.6591C46.9898 16.9245 47.0837 16.8035 47.0837 16.2819C47.0837 15.7608 46.9837 15.6316 45.145 13.7779C44.0787 12.7028 43.2062 11.7314 43.2062 11.6192C43.2062 11.5069 43.8917 10.732 44.7295 9.8972C46.1592 8.47256 46.2528 8.34535 46.2528 7.82793C46.2528 7.29985 46.1574 7.18108 43.9978 5.02252L41.7429 2.76845H34.701H27.659L26.3881 4.01425ZM34.9569 39.0351L32.316 39.1043L30.7342 40.7496C29.8641 41.6545 29.0116 42.5854 28.8397 42.8182C28.5329 43.2339 28.5272 43.3121 28.5272 47.1178V50.994L31.4536 53.9308C33.3771 55.8609 34.3915 56.9784 34.4133 57.191C34.4316 57.3689 34.4545 61.1238 34.4642 65.535L34.4819 73.5555L36.948 76.0205C39.2639 78.3355 39.4456 78.4855 39.9317 78.4855C40.2965 78.4855 40.5495 78.3853 40.789 78.1457C41.0603 77.8747 41.1266 77.6719 41.1174 77.1421C41.1109 76.7771 41.0618 76.1293 41.0084 75.7027C40.9277 75.0593 40.8116 74.8139 40.3276 74.2643C39.7442 73.6017 39.7442 73.6017 39.7463 71.3719C39.7475 70.1454 39.8033 69.0554 39.8705 68.9493C39.9376 68.8434 40.2326 68.7431 40.5262 68.7265C40.8196 68.7099 41.1802 68.6876 41.3274 68.6769C41.4748 68.6663 42.6481 67.6141 43.9349 66.339C45.2217 65.0638 46.3632 63.8522 46.4715 63.6466C46.6107 63.3823 46.6683 62.7744 46.6683 61.5714V59.8701L49.6802 56.8574L52.6922 53.8448L52.7372 51.8291L52.7822 49.8135L50.937 47.9097C49.922 46.8626 48.9485 45.9324 48.7736 45.8426C48.5853 45.746 47.8249 45.6794 46.9106 45.6794H45.3657L42.0356 42.3736C38.9352 39.2958 38.6674 39.0643 38.1516 39.0169C37.847 38.9889 36.4094 38.9971 34.9569 39.0351ZM137.041 52.7318L135.642 54.1088L132.318 54.1506L128.993 54.1924L126.571 56.2853C125.239 57.4366 124.024 58.5174 123.872 58.6874C123.614 58.9748 123.592 59.2258 123.551 62.2698C123.527 64.0701 123.547 65.8091 123.595 66.1342C123.644 66.4692 123.809 66.8442 123.976 66.9994C124.153 67.1638 124.463 67.2733 124.753 67.2733C125.168 67.2733 125.389 67.1249 126.304 66.2351L127.371 65.197H129.078H130.786L133.085 67.4809C135.016 69.3989 135.449 69.7646 135.79 69.7628C136.014 69.7616 136.29 69.7025 136.404 69.6313C136.519 69.5602 138.279 67.8339 140.316 65.7952L144.021 62.0884V59.0909V56.0935L142.112 54.174C141.062 53.1182 139.969 52.0521 139.684 51.8046C139.383 51.5445 139.012 51.3547 138.803 51.3547C138.531 51.3547 138.093 51.697 137.041 52.7318Z" fill="#202020"/>
<path fill-rule="evenodd" clip-rule="evenodd" d="M189.582 0.145344C189.358 0.212341 188.719 0.719243 188.163 1.2721C187.234 2.19469 187.151 2.32356 187.151 2.84472C187.151 3.25902 187.237 3.49351 187.471 3.71332C187.745 3.97037 187.953 4.01425 188.897 4.01425C189.573 4.01425 190.068 4.07889 190.17 4.18036C190.288 4.29898 190.336 5.17271 190.336 7.23396V10.1214L191.059 10.8864C191.458 11.307 191.907 11.7173 192.058 11.798C192.209 11.8787 192.517 11.9396 192.742 11.9331C193.066 11.924 193.417 11.6592 194.41 10.6742L195.667 9.42684L198.115 9.38518L200.563 9.34351L202.062 7.85769L203.561 6.372V4.77322V3.17458L201.957 1.58729L200.352 0L195.171 0.0119036C192.321 0.0184094 189.806 0.0784864 189.582 0.145344ZM232.815 2.12312C232.606 2.21158 231.758 2.95366 230.93 3.77201L229.425 5.26005H223.568H217.711L211.848 11.1155C206.562 16.3942 205.984 17.0146 205.984 17.4144C205.984 17.7474 206.377 18.4532 207.566 20.2534C208.436 21.5711 209.251 22.7355 209.378 22.8408C209.505 22.9462 209.83 23.026 210.101 23.0184C210.531 23.0062 210.766 22.8311 211.999 21.6028L213.406 20.2012L215.249 20.1909L217.092 20.1805L219.406 22.479L221.72 24.7776H223.205C224.69 24.7776 224.69 24.7776 225.247 25.2973C225.635 25.6587 225.777 25.8879 225.715 26.0503C225.636 26.2557 225.311 26.2889 223.01 26.3266L220.394 26.3695L219.59 27.1654C219.148 27.6032 218.667 27.9613 218.521 27.9613C218.373 27.9613 217.664 27.3795 216.911 26.6398L215.565 25.3183L211.88 25.3594L208.195 25.4005L204.81 28.7919L201.426 32.1832L201.419 35.5012L201.413 38.8193L204.498 41.9032C207.455 44.8593 207.606 44.9873 208.119 44.9873C208.609 44.9873 208.768 44.8757 209.993 43.6723C210.73 42.949 211.431 42.3573 211.551 42.3573C211.672 42.3573 211.809 42.4558 211.855 42.5763C211.901 42.6967 211.939 43.6393 211.939 44.6711V46.5472L213.185 47.8176L214.432 49.0879V52.9116C214.432 55.2371 214.488 56.8879 214.577 57.1249C214.656 57.3391 215.968 58.7634 217.49 60.2896L220.259 63.0647L220.256 65.1462C220.254 67.0401 220.279 67.2545 220.532 67.5257C220.684 67.6895 220.959 67.8612 221.142 67.907C221.325 67.953 221.59 67.9538 221.731 67.9089C221.872 67.8641 223.154 66.6557 224.58 65.2236L227.172 62.6195V60.6492V58.6788L228.83 56.9894L230.488 55.2998L230.492 52.8843L230.495 50.4688L233.646 47.3089L236.796 44.149L236.836 41.6959C236.858 40.3467 236.841 39.1043 236.8 38.9352C236.758 38.7659 236.588 38.5012 236.422 38.3469C236.246 38.1831 235.932 38.0662 235.667 38.0662C235.3 38.0662 235.047 38.2258 234.35 38.8967C233.876 39.3535 233.391 39.7272 233.272 39.7272C233.153 39.7272 231.358 38.0294 229.283 35.9543C227.208 33.8792 225.51 32.1061 225.51 32.0141C225.51 31.9222 225.641 31.7767 225.802 31.6908C226.068 31.5484 226.37 31.8093 229.229 34.651C230.974 36.3852 232.488 37.7794 232.642 37.7943C232.794 37.8091 233.04 37.814 233.189 37.8052C233.343 37.7961 234.771 36.4821 236.516 34.744L239.574 31.6987H241.469C243.201 31.6987 243.377 31.7219 243.508 31.9664C243.59 32.1205 243.651 33.2206 243.651 34.5572V36.88L245.837 39.0649C247.567 40.7941 248.1 41.2499 248.392 41.2499C248.596 41.2499 248.918 41.179 249.108 41.0924C249.298 41.0057 249.519 40.7473 249.599 40.5181C249.679 40.2888 249.744 39.284 249.744 38.2852V36.4691L251.097 35.1221C251.841 34.3812 252.512 33.7751 252.588 33.7751C252.664 33.7751 253.333 34.3836 254.074 35.1272L255.422 36.4793V40.3486V44.2179L258.023 46.8174C260.42 49.2138 260.662 49.4168 261.114 49.4168C261.463 49.4168 261.703 49.3133 261.941 49.06C262.272 48.7086 262.278 48.6566 262.319 45.7687L262.361 42.8344L264.167 41.0385C265.16 40.0509 266.033 39.1301 266.107 38.9924C266.181 38.8548 266.204 38.5707 266.158 38.3613C266.109 38.1359 265.596 37.5047 264.903 36.8153C264.258 36.1742 263.731 35.5549 263.731 35.4386C263.731 35.3225 266.876 32.0844 270.72 28.2426C275.493 23.4719 277.735 21.1388 277.791 20.8823C277.839 20.6622 277.788 20.3449 277.666 20.116C277.552 19.901 276.287 18.5602 274.853 17.1364C273.42 15.7126 272.092 14.4927 271.901 14.4253C271.711 14.358 270.87 14.3161 270.032 14.3321C269.194 14.348 268.4 14.3046 268.266 14.2352C268.133 14.166 268.024 14.0049 268.024 13.8773C268.024 13.7495 268.286 13.378 268.607 13.0516C269.189 12.458 269.189 12.458 271.205 12.458H273.222L274.734 13.9749C275.566 14.809 276.421 15.5635 276.633 15.6516C276.846 15.7396 277.161 15.7759 277.334 15.7324C277.507 15.6888 278.754 14.541 280.106 13.1817C282.326 10.9496 282.564 10.6646 282.564 10.2388C282.564 9.8118 282.325 9.52872 280.029 7.23686L277.494 4.70636H270.876H264.258L262.921 3.41281L261.584 2.11911L254.799 2.02221C251.067 1.96892 244.679 1.93363 240.605 1.94373C235.323 1.95688 233.086 2.00837 232.815 2.12312ZM168.255 4.01425L166.984 5.26005H157.659C148.333 5.26005 148.333 5.26006 147.904 5.58715C147.668 5.7671 146.214 7.18135 144.671 8.72989C142.117 11.2947 141.867 11.5876 141.867 12.0203C141.867 12.4328 142.036 12.6676 143.148 13.804C143.853 14.524 144.6 15.202 144.809 15.311C145.026 15.4243 145.336 15.472 145.534 15.4225C145.724 15.3749 146.658 14.5637 147.61 13.6201L149.34 11.9043H151.197C152.763 11.9043 153.068 11.9387 153.139 12.1233C153.185 12.2437 153.223 12.7044 153.223 13.1471C153.223 13.8828 153.262 13.9859 153.674 14.3469C153.923 14.5643 154.858 15.296 155.752 15.9731C156.839 16.7967 157.377 17.2927 157.377 17.4713C157.377 17.621 156.83 18.2958 156.131 19.0086L154.885 20.2789L154.885 24.2972L154.884 28.3156L160.2 33.6229C163.124 36.5421 165.601 38.9842 165.705 39.0499C165.809 39.1156 166.444 39.1702 167.116 39.1715C168.284 39.1734 168.357 39.1554 168.743 38.7689C169.018 38.4947 169.148 38.2252 169.148 37.9325C169.148 37.5625 168.861 37.2095 167.14 35.4652L165.132 33.4297V31.2573C165.132 30.0626 165.186 29.052 165.251 29.0114C165.317 28.971 166.859 28.9326 168.679 28.9264L171.987 28.9149L176.214 24.7008L180.44 20.4865H182.849H185.258L187.105 18.6591C188.857 16.9245 188.951 16.8035 188.951 16.2819C188.951 15.7608 188.851 15.6316 187.012 13.7779C185.946 12.7028 185.073 11.7314 185.073 11.6192C185.073 11.5069 185.759 10.732 186.597 9.8972C188.026 8.47256 188.12 8.34535 188.12 7.82793C188.12 7.29985 188.025 7.18108 185.865 5.02252L183.61 2.76845H176.568H169.526L168.255 4.01425ZM176.824 39.0351L174.183 39.1043L172.601 40.7496C171.731 41.6545 170.879 42.5854 170.707 42.8182C170.4 43.2339 170.394 43.3121 170.394 47.1178V50.994L173.321 53.9308C175.244 55.8609 176.259 56.9784 176.281 57.191C176.299 57.3689 176.322 61.1238 176.331 65.535L176.349 73.5555L178.815 76.0205C181.131 78.3355 181.313 78.4855 181.799 78.4855C182.164 78.4855 182.417 78.3853 182.656 78.1457C182.928 77.8747 182.994 77.6719 182.985 77.1421C182.978 76.7771 182.929 76.1293 182.876 75.7027C182.795 75.0593 182.679 74.8139 182.195 74.2643C181.611 73.6017 181.611 73.6017 181.613 71.3719C181.615 70.1454 181.671 69.0554 181.738 68.9493C181.805 68.8434 182.1 68.7431 182.393 68.7265C182.687 68.7099 183.047 68.6876 183.195 68.6769C183.342 68.6663 184.515 67.6141 185.802 66.339C187.089 65.0638 188.23 63.8522 188.339 63.6466C188.478 63.3823 188.535 62.7744 188.535 61.5714V59.8701L191.547 56.8574L194.559 53.8448L194.604 51.8291L194.649 49.8135L192.804 47.9097C191.789 46.8626 190.816 45.9324 190.641 45.8426C190.452 45.746 189.692 45.6794 188.778 45.6794H187.233L183.903 42.3736C180.802 39.2958 180.535 39.0643 180.019 39.0169C179.714 38.9889 178.277 38.9971 176.824 39.0351ZM278.909 52.7318L277.509 54.1088L274.185 54.1506L270.861 54.1924L268.438 56.2853C267.106 57.4366 265.891 58.5174 265.739 58.6874C265.481 58.9748 265.459 59.2258 265.418 62.2698C265.394 64.0701 265.414 65.8091 265.462 66.1342C265.511 66.4692 265.677 66.8442 265.843 66.9994C266.02 67.1638 266.33 67.2733 266.621 67.2733C267.035 67.2733 267.256 67.1249 268.171 66.2351L269.238 65.197H270.946H272.653L274.952 67.4809C276.883 69.3989 277.316 69.7646 277.658 69.7628C277.881 69.7616 278.157 69.7025 278.271 69.6313C278.386 69.5602 280.146 67.8339 282.184 65.7952L285.888 62.0884V59.0909V56.0935L283.979 54.174C282.929 53.1182 281.837 52.0521 281.551 51.8046C281.251 51.5445 280.879 51.3547 280.67 51.3547C280.398 51.3547 279.961 51.697 278.909 52.7318Z" fill="#202020"/>
</svg>
