<svg width="102" height="28" viewBox="0 0 102 28" fill="none" xmlns="http://www.w3.org/2000/svg">
<path fill-rule="evenodd" clip-rule="evenodd" d="M67.5813 0.0518522C67.5013 0.0757534 67.273 0.256592 67.074 0.453827C66.7419 0.782963 66.7123 0.828938 66.7123 1.01486C66.7123 1.16267 66.7432 1.24632 66.8268 1.32474C66.9247 1.41644 66.9989 1.4321 67.3366 1.4321C67.578 1.4321 67.7549 1.45516 67.7912 1.49136C67.8336 1.53368 67.8506 1.84538 67.8506 2.58074V3.61086L68.1092 3.88375C68.2515 4.03383 68.412 4.1802 68.466 4.20899C68.5199 4.23778 68.63 4.25951 68.7106 4.25718C68.8263 4.25393 68.9517 4.15946 69.3066 3.80805L69.756 3.36306L70.6309 3.3482L71.5058 3.33333L72.0415 2.80326L72.5771 2.27323V1.70286V1.13254L72.0038 0.566271L71.4304 0L69.5786 0.00424664C68.5601 0.00656763 67.6614 0.0280003 67.5813 0.0518522ZM83.0325 0.757432C82.9577 0.788987 82.6545 1.05373 82.3588 1.34568L81.8209 1.87654H79.7277H77.6344L75.5388 3.96548C73.6496 5.84869 73.4432 6.07002 73.4432 6.21264C73.4432 6.33146 73.5837 6.58326 74.0084 7.22548C74.3194 7.69556 74.6108 8.11096 74.6562 8.14854C74.7016 8.18612 74.8178 8.21462 74.9144 8.2119C75.0683 8.20755 75.1523 8.14509 75.5929 7.70686L76.0958 7.20686L76.7544 7.20316L77.4131 7.19946L78.2401 8.01946L79.0671 8.8395H79.5978C80.1284 8.8395 80.1284 8.83951 80.3276 9.02489C80.4662 9.15383 80.5171 9.2356 80.4948 9.29353C80.4666 9.36681 80.3504 9.37867 79.528 9.3921L78.5932 9.40741L78.3058 9.69136C78.1477 9.84755 77.9758 9.97531 77.9237 9.97531C77.8708 9.97531 77.6174 9.76775 77.3482 9.50385L76.8673 9.03239L75.5503 9.04706L74.2332 9.06173L73.0237 10.2716L71.8142 11.4815L71.8118 12.6652L71.8095 13.8489L72.9121 14.9491C73.969 16.0037 74.0227 16.0494 74.2061 16.0494C74.3812 16.0494 74.438 16.0096 74.876 15.5802C75.1392 15.3222 75.3898 15.1111 75.4329 15.1111C75.476 15.1111 75.5248 15.1463 75.5413 15.1892C75.5578 15.2322 75.5713 15.5685 75.5713 15.9366V16.6059L76.0168 17.0591L76.4622 17.5123V18.8764C76.4622 19.706 76.4826 20.295 76.5141 20.3795C76.5426 20.456 77.0112 20.964 77.5553 21.5085L78.5447 22.4986L78.5439 23.2411C78.5431 23.9168 78.552 23.9933 78.6423 24.09C78.6969 24.1485 78.795 24.2097 78.8604 24.2261C78.9257 24.2425 79.0205 24.2428 79.071 24.2268C79.1215 24.2108 79.5797 23.7797 80.0891 23.2687L81.0155 22.3398V21.6368V20.9339L81.6081 20.3312L82.2008 19.7284L82.202 18.8667L82.2033 18.0049L83.3292 16.8776L84.4552 15.7503L84.4694 14.8752C84.4771 14.3938 84.4713 13.9506 84.4564 13.8903C84.4414 13.8299 84.3808 13.7355 84.3215 13.6804C84.2587 13.622 84.1462 13.5802 84.0515 13.5802C83.9204 13.5802 83.83 13.6372 83.581 13.8765C83.4115 14.0395 83.238 14.1728 83.1955 14.1728C83.153 14.1728 82.5115 13.5671 81.7699 12.8268C81.0283 12.0865 80.4216 11.454 80.4216 11.4211C80.4216 11.3883 80.4685 11.3364 80.5259 11.3058C80.621 11.255 80.7289 11.3481 81.7508 12.3619C82.3744 12.9805 82.9153 13.4779 82.9704 13.4833C83.0249 13.4885 83.1128 13.4903 83.1659 13.4872C83.221 13.4839 83.7315 13.0151 84.3551 12.3951L85.4479 11.3086H86.1252C86.7443 11.3086 86.807 11.3169 86.8538 11.4041C86.8833 11.4591 86.9051 11.8516 86.9051 12.3284V13.1571L87.6863 13.9365C88.3045 14.5534 88.495 14.716 88.5996 14.716C88.6722 14.716 88.7872 14.6908 88.8552 14.6599C88.9232 14.6289 89.0022 14.5367 89.0307 14.455C89.0594 14.3732 89.0827 14.0147 89.0827 13.6584V13.0105L89.5662 12.5299C89.832 12.2656 90.0719 12.0494 90.0991 12.0494C90.1264 12.0494 90.3654 12.2665 90.6303 12.5318L91.1119 13.0141V14.3945V15.7749L92.0413 16.7023C92.8981 17.5572 92.9845 17.6296 93.1463 17.6296C93.2709 17.6296 93.3566 17.5927 93.4418 17.5023C93.5599 17.377 93.562 17.3584 93.5767 16.3281L93.5918 15.2813L94.2372 14.6406C94.5922 14.2883 94.9043 13.9598 94.9308 13.9107C94.9572 13.8616 94.9654 13.7602 94.949 13.6855C94.9313 13.6051 94.7481 13.38 94.5002 13.134C94.2699 12.9053 94.0814 12.6843 94.0814 12.6429C94.0814 12.6014 95.2054 11.4462 96.5792 10.0757C98.2852 8.37368 99.0863 7.54133 99.1064 7.44983C99.1237 7.37131 99.1052 7.25812 99.0619 7.17644C99.0211 7.09975 98.5687 6.62143 98.0565 6.11348C97.5443 5.60553 97.0695 5.17032 97.0015 5.14627C96.9334 5.12227 96.6327 5.10731 96.3333 5.11304C96.0339 5.11872 95.75 5.10321 95.7023 5.07847C95.6546 5.05378 95.6157 4.9963 95.6157 4.95077C95.6157 4.90518 95.7094 4.77264 95.8239 4.6562C96.0322 4.44444 96.0322 4.44444 96.7528 4.44444H97.4733L98.014 4.98558C98.3113 5.28316 98.6167 5.55235 98.6927 5.58375C98.7686 5.61516 98.8813 5.6281 98.9431 5.61259C99.0048 5.59704 99.4507 5.18755 99.9339 4.70262C100.727 3.90632 100.812 3.80464 100.812 3.65274C100.812 3.50039 100.727 3.39941 99.9064 2.58178L99.0003 1.67901H96.6351H94.2697L93.792 1.21753L93.3143 0.756L90.8892 0.721432C89.5554 0.702419 87.2725 0.689828 85.8162 0.693433C83.9287 0.698124 83.1293 0.716494 83.0325 0.757432ZM59.9592 1.4321L59.505 1.87654H56.172C52.8391 1.87654 52.8391 1.87654 52.6859 1.99324C52.6016 2.05743 52.0817 2.56197 51.5305 3.11442C50.6176 4.02943 50.5283 4.13393 50.5283 4.2883C50.5283 4.43546 50.5886 4.51921 50.9861 4.92464C51.2379 5.18148 51.505 5.42336 51.5796 5.46227C51.6572 5.50267 51.7681 5.5197 51.8388 5.50202C51.9067 5.48504 52.2406 5.19565 52.5807 4.85901L53.199 4.24691H53.8628C54.4225 4.24691 54.5313 4.25916 54.5566 4.32504C54.5732 4.368 54.5867 4.53235 54.5867 4.69027C54.5867 4.95274 54.6006 4.98953 54.7481 5.11832C54.8369 5.19585 55.171 5.45689 55.4905 5.69847C55.8791 5.9923 56.0714 6.16924 56.0714 6.23294C56.0714 6.28637 55.8759 6.52711 55.6261 6.78138L55.1807 7.23457L55.1807 8.6681L55.1806 10.1017L57.0805 11.9951C58.1255 13.0365 59.0107 13.9078 59.0478 13.9312C59.0849 13.9546 59.3118 13.9741 59.5521 13.9746C59.9694 13.9753 59.9954 13.9688 60.1336 13.831C60.2317 13.7331 60.2783 13.637 60.2783 13.5325C60.2783 13.4005 60.1756 13.2746 59.5606 12.6523L58.843 11.9262V11.1512C58.843 10.7249 58.8622 10.3644 58.8856 10.3499C58.909 10.3355 59.4602 10.3218 60.1105 10.3196L61.2929 10.3155L62.8034 8.8121L64.314 7.30864H65.1749H66.0359L66.6958 6.65669C67.3221 6.03788 67.3557 5.99472 67.3557 5.80864C67.3557 5.62272 67.3199 5.57664 66.6628 4.91531C66.2817 4.53175 65.9699 4.18523 65.9699 4.14518C65.9699 4.10514 66.2149 3.82869 66.5143 3.53086C67.0252 3.02262 67.0587 2.97723 67.0587 2.79264C67.0587 2.60425 67.0246 2.56188 66.2528 1.7918L65.4469 0.987654H62.9302H60.4134L59.9592 1.4321ZM63.0216 13.9259L62.0778 13.9506L61.5125 14.5376C61.2015 14.8604 60.8968 15.1925 60.8354 15.2756C60.7257 15.4239 60.7237 15.4518 60.7237 16.8094V18.1923L61.7696 19.24C62.457 19.9286 62.8195 20.3273 62.8274 20.4031C62.8339 20.4666 62.8421 21.8061 62.8455 23.3799L62.8519 26.2412L63.7332 27.1206C64.5609 27.9465 64.6259 28 64.7996 28C64.9299 28 65.0204 27.9642 65.106 27.8788C65.2029 27.7821 65.2266 27.7097 65.2233 27.5207C65.221 27.3905 65.2035 27.1594 65.1844 27.0072C65.1555 26.7777 65.1141 26.6901 64.9411 26.4941C64.7326 26.2577 64.7326 26.2577 64.7333 25.4622C64.7338 25.0246 64.7537 24.6358 64.7777 24.5979C64.8017 24.5601 64.9071 24.5243 65.0121 24.5184C65.1169 24.5125 65.2458 24.5045 65.2984 24.5007C65.3511 24.4969 65.7704 24.1216 66.2303 23.6667C66.6902 23.2118 67.0981 22.7795 67.1368 22.7062C67.1866 22.6119 67.2072 22.395 67.2072 21.9658V21.3589L68.2836 20.2841L69.3601 19.2093L69.3762 18.4902L69.3923 17.7712L68.7328 17.092C68.37 16.7184 68.0221 16.3866 67.9596 16.3545C67.8923 16.32 67.6205 16.2963 67.2938 16.2963H66.7417L65.5515 15.1169C64.4434 14.0189 64.3477 13.9363 64.1634 13.9194C64.0545 13.9094 63.5407 13.9123 63.0216 13.9259ZM99.5058 18.8122L99.0055 19.3035L97.8175 19.3184L96.6295 19.3333L95.7638 20.08C95.2876 20.4907 94.8535 20.8763 94.7991 20.9369C94.707 21.0395 94.699 21.129 94.6845 22.215C94.676 22.8572 94.6829 23.4776 94.7001 23.5936C94.7177 23.7131 94.7768 23.8469 94.8363 23.9023C94.8994 23.9609 95.0105 24 95.1142 24C95.2622 24 95.3414 23.9471 95.6683 23.6296L96.0497 23.2593H96.6599H97.27L98.0918 24.0741C98.7818 24.7583 98.9368 24.8888 99.0587 24.8881C99.1385 24.8877 99.2373 24.8666 99.2781 24.8412C99.3189 24.8158 99.9481 24.2 100.676 23.4727L102 22.1503V21.0809V20.0116L101.318 19.3268C100.943 18.9501 100.552 18.5698 100.45 18.4815C100.343 18.3887 100.21 18.321 100.135 18.321C100.038 18.321 99.8817 18.4431 99.5058 18.8122Z" fill="#202020"/>
<path fill-rule="evenodd" clip-rule="evenodd" d="M17.053 0.0518522C16.9729 0.0757534 16.7446 0.256592 16.5457 0.453827C16.2136 0.782963 16.1839 0.828938 16.1839 1.01486C16.1839 1.16267 16.2149 1.24632 16.2985 1.32474C16.3964 1.41644 16.4706 1.4321 16.8082 1.4321C17.0497 1.4321 17.2266 1.45516 17.2629 1.49136C17.3053 1.53368 17.3223 1.84538 17.3223 2.58074V3.61086L17.5809 3.88375C17.7232 4.03383 17.8837 4.1802 17.9376 4.20899C17.9916 4.23778 18.1017 4.25951 18.1822 4.25718C18.298 4.25393 18.4234 4.15946 18.7783 3.80805L19.2277 3.36306L20.1026 3.3482L20.9775 3.33333L21.5132 2.80326L22.0488 2.27323V1.70286V1.13254L21.4754 0.566271L20.9021 0L19.0503 0.00424664C18.0318 0.00656763 17.133 0.0280003 17.053 0.0518522ZM32.5042 0.757432C32.4294 0.788987 32.1262 1.05373 31.8304 1.34568L31.2926 1.87654H29.1993H27.1061L25.0105 3.96548C23.1212 5.84869 22.9149 6.07002 22.9149 6.21264C22.9149 6.33146 23.0554 6.58326 23.4801 7.22548C23.791 7.69556 24.0825 8.11096 24.1279 8.14854C24.1733 8.18612 24.2895 8.21462 24.3861 8.2119C24.54 8.20755 24.6239 8.14509 25.0646 7.70686L25.5674 7.20686L26.2261 7.20316L26.8848 7.19946L27.7118 8.01946L28.5388 8.8395H29.0695C29.6001 8.8395 29.6001 8.83951 29.7993 9.02489C29.9379 9.15383 29.9887 9.2356 29.9665 9.29353C29.9383 9.36681 29.8221 9.37867 28.9997 9.3921L28.0649 9.40741L27.7775 9.69136C27.6194 9.84755 27.4475 9.97531 27.3954 9.97531C27.3424 9.97531 27.0891 9.76775 26.8199 9.50385L26.3389 9.03239L25.022 9.04706L23.7049 9.06173L22.4954 10.2716L21.2859 11.4815L21.2835 12.6652L21.2811 13.8489L22.3838 14.9491C23.4407 16.0037 23.4944 16.0494 23.6778 16.0494C23.8528 16.0494 23.9097 16.0096 24.3477 15.5802C24.6109 15.3222 24.8615 15.1111 24.9046 15.1111C24.9477 15.1111 24.9965 15.1463 25.013 15.1892C25.0295 15.2322 25.043 15.5685 25.043 15.9366V16.6059L25.4885 17.0591L25.9339 17.5123V18.8764C25.9339 19.706 25.9542 20.295 25.9858 20.3795C26.0143 20.456 26.4829 20.964 27.027 21.5085L28.0164 22.4986L28.0156 23.2411C28.0148 23.9168 28.0237 23.9933 28.114 24.09C28.1686 24.1485 28.2667 24.2097 28.3321 24.2261C28.3974 24.2425 28.4922 24.2428 28.5427 24.2268C28.5932 24.2108 29.0514 23.7797 29.5608 23.2687L30.4872 22.3398V21.6368V20.9339L31.0798 20.3312L31.6725 19.7284L31.6737 18.8667L31.675 18.0049L32.8009 16.8776L33.9269 15.7503L33.941 14.8752C33.9488 14.3938 33.943 13.9506 33.9281 13.8903C33.9131 13.8299 33.8524 13.7355 33.7932 13.6804C33.7304 13.622 33.6178 13.5802 33.5232 13.5802C33.3921 13.5802 33.3017 13.6372 33.0527 13.8765C32.8832 14.0395 32.7097 14.1728 32.6672 14.1728C32.6247 14.1728 31.9832 13.5671 31.2416 12.8268C30.5 12.0865 29.8933 11.454 29.8933 11.4211C29.8933 11.3883 29.9402 11.3364 29.9975 11.3058C30.0927 11.255 30.2006 11.3481 31.2225 12.3619C31.8461 12.9805 32.387 13.4779 32.4421 13.4833C32.4966 13.4885 32.5845 13.4903 32.6376 13.4872C32.6926 13.4839 33.2032 13.0151 33.8268 12.3951L34.9195 11.3086H35.5969C36.2159 11.3086 36.2787 11.3169 36.3255 11.4041C36.355 11.4591 36.3767 11.8516 36.3767 12.3284V13.1571L37.158 13.9365C37.7762 14.5534 37.9667 14.716 38.0712 14.716C38.1438 14.716 38.2589 14.6908 38.3269 14.6599C38.3949 14.6289 38.4739 14.5367 38.5024 14.455C38.531 14.3732 38.5544 14.0147 38.5544 13.6584V13.0105L39.0378 12.5299C39.3037 12.2656 39.5435 12.0494 39.5708 12.0494C39.598 12.0494 39.8371 12.2665 40.102 12.5318L40.5836 13.0141V14.3945V15.7749L41.513 16.7023C42.3698 17.5572 42.4561 17.6296 42.6179 17.6296C42.7426 17.6296 42.8282 17.5927 42.9135 17.5023C43.0316 17.377 43.0337 17.3584 43.0484 16.3281L43.0635 15.2813L43.7089 14.6406C44.0639 14.2883 44.376 13.9598 44.4024 13.9107C44.4289 13.8616 44.4371 13.7602 44.4207 13.6855C44.4029 13.6051 44.2198 13.38 43.9719 13.134C43.7416 12.9053 43.5531 12.6843 43.5531 12.6429C43.5531 12.6014 44.6771 11.4462 46.0509 10.0757C47.7569 8.37368 48.5579 7.54133 48.5781 7.44983C48.5954 7.37131 48.5769 7.25812 48.5335 7.17644C48.4928 7.09975 48.0404 6.62143 47.5282 6.11348C47.016 5.60553 46.5412 5.17032 46.4731 5.14627C46.4051 5.12227 46.1044 5.10731 45.805 5.11304C45.5056 5.11872 45.2216 5.10321 45.174 5.07847C45.1263 5.05378 45.0874 4.9963 45.0874 4.95077C45.0874 4.90518 45.1811 4.77264 45.2956 4.6562C45.5039 4.44444 45.5039 4.44444 46.2244 4.44444H46.945L47.4857 4.98558C47.783 5.28316 48.0884 5.55235 48.1643 5.58375C48.2403 5.61516 48.3529 5.6281 48.4148 5.61259C48.4765 5.59704 48.9224 5.18755 49.4055 4.70262C50.199 3.90632 50.284 3.80464 50.284 3.65274C50.284 3.50039 50.1986 3.39941 49.378 2.58178L48.472 1.67901H46.1067H43.7414L43.2637 1.21753L42.786 0.756L40.3609 0.721432C39.027 0.702419 36.7442 0.689828 35.2879 0.693433C33.4004 0.698124 32.601 0.716494 32.5042 0.757432ZM9.43088 1.4321L8.97669 1.87654H5.64369C2.31074 1.87654 2.31074 1.87654 2.15756 1.99324C2.07333 2.05743 1.55341 2.56197 1.00222 3.11442C0.0892344 4.02943 0 4.13393 0 4.2883C0 4.43546 0.060283 4.51921 0.457804 4.92464C0.709571 5.18148 0.976678 5.42336 1.05126 5.46227C1.12887 5.50267 1.23983 5.5197 1.31045 5.50202C1.37841 5.48504 1.71223 5.19565 2.05234 4.85901L2.6707 4.24691H3.33448C3.89414 4.24691 4.00298 4.25916 4.02832 4.32504C4.04485 4.368 4.05836 4.53235 4.05836 4.69027C4.05836 4.95274 4.07226 4.98953 4.2198 5.11832C4.30859 5.19585 4.64266 5.45689 4.96218 5.69847C5.3508 5.9923 5.54312 6.16924 5.54312 6.23294C5.54312 6.28637 5.34763 6.52711 5.09779 6.78138L4.65241 7.23457L4.65236 8.6681L4.65226 10.1017L6.55217 11.9951C7.59715 13.0365 8.48241 13.9078 8.51948 13.9312C8.55655 13.9546 8.78347 13.9741 9.02376 13.9746C9.44107 13.9753 9.46711 13.9688 9.60529 13.831C9.70333 13.7331 9.74996 13.637 9.74996 13.5325C9.74996 13.4005 9.64726 13.2746 9.03232 12.6523L8.31468 11.9262V11.1512C8.31468 10.7249 8.33384 10.3644 8.35725 10.3499C8.38071 10.3355 8.9319 10.3218 9.58218 10.3196L10.7645 10.3155L12.2751 8.8121L13.7856 7.30864H14.6466H15.5076L16.1675 6.65669C16.7938 6.03788 16.8273 5.99472 16.8273 5.80864C16.8273 5.62272 16.7916 5.57664 16.1344 4.91531C15.7534 4.53175 15.4416 4.18523 15.4416 4.14518C15.4416 4.10514 15.6865 3.82869 15.986 3.53086C16.4969 3.02262 16.5304 2.97723 16.5304 2.79264C16.5304 2.60425 16.4963 2.56188 15.7245 1.7918L14.9186 0.987654H12.4018H9.88512L9.43088 1.4321ZM12.4933 13.9259L11.5495 13.9506L10.9841 14.5376C10.6732 14.8604 10.3685 15.1925 10.3071 15.2756C10.1974 15.4239 10.1954 15.4518 10.1954 16.8094V18.1923L11.2413 19.24C11.9287 19.9286 12.2912 20.3273 12.299 20.4031C12.3056 20.4666 12.3137 21.8061 12.3172 23.3799L12.3235 26.2412L13.2049 27.1206C14.0326 27.9465 14.0975 28 14.2713 28C14.4016 28 14.492 27.9642 14.5777 27.8788C14.6746 27.7821 14.6983 27.7097 14.695 27.5207C14.6927 27.3905 14.6752 27.1594 14.6561 27.0072C14.6272 26.7777 14.5857 26.6901 14.4128 26.4941C14.2042 26.2577 14.2043 26.2577 14.205 25.4622C14.2054 25.0246 14.2254 24.6358 14.2494 24.5979C14.2734 24.5601 14.3788 24.5243 14.4837 24.5184C14.5886 24.5125 14.7175 24.5045 14.7701 24.5007C14.8228 24.4969 15.2421 24.1216 15.702 23.6667C16.1619 23.2118 16.5698 22.7795 16.6085 22.7062C16.6583 22.6119 16.6789 22.395 16.6789 21.9658V21.3589L17.7553 20.2841L18.8318 19.2093L18.8479 18.4902L18.8639 17.7712L18.2045 17.092C17.8417 16.7184 17.4938 16.3866 17.4313 16.3545C17.364 16.32 17.0922 16.2963 16.7655 16.2963H16.2133L15.0232 15.1169C13.9151 14.0189 13.8194 13.9363 13.6351 13.9194C13.5262 13.9094 13.0124 13.9123 12.4933 13.9259ZM48.9775 18.8122L48.4772 19.3035L47.2892 19.3184L46.1012 19.3333L45.2355 20.08C44.7593 20.4907 44.3252 20.8763 44.2707 20.9369C44.1787 21.0395 44.1707 21.129 44.1562 22.215C44.1476 22.8572 44.1546 23.4776 44.1718 23.5936C44.1894 23.7131 44.2485 23.8469 44.308 23.9023C44.3711 23.9609 44.4822 24 44.5858 24C44.7339 24 44.8131 23.9471 45.14 23.6296L45.5214 23.2593H46.1315H46.7417L47.5635 24.0741C48.2535 24.7583 48.4084 24.8888 48.5304 24.8881C48.6102 24.8877 48.7089 24.8666 48.7498 24.8412C48.7906 24.8158 49.4197 24.2 50.1479 23.4727L51.4719 22.1503V21.0809V20.0116L50.7896 19.3268C50.4144 18.9501 50.0239 18.5698 49.9218 18.4815C49.8145 18.3887 49.6817 18.321 49.607 18.321C49.5099 18.321 49.3534 18.4431 48.9775 18.8122Z" fill="#202020"/>
</svg>
